<?xml version="1.0" encoding="iso-8859-1"?>
<!-- Generator: Adobe Illustrator 24.0.1, SVG Export Plug-In . SVG Version: 6.00 Build 0)  -->
<svg version="1.1" id="&#x421;&#x43B;&#x43E;&#x439;_1"
	 xmlns="http://www.w3.org/2000/svg" xmlns:xlink="http://www.w3.org/1999/xlink" x="0px" y="0px" viewBox="0 0 3065.253 2000"
	 style="enable-background:new 0 0 3065.253 2000;" xml:space="preserve">
<g>
	<g>
		<g>
			<linearGradient id="SVGID_1_" gradientUnits="userSpaceOnUse" x1="84.232" y1="506.7868" x2="1892.9365" y2="506.7868">
				<stop  offset="0" style="stop-color:#D5E4FF"/>
				<stop  offset="1" style="stop-color:#EDFFFE"/>
			</linearGradient>
			<path style="opacity:0.18;fill:url(#SVGID_1_);" d="M1832.833,842.555H144.337c-33.195,0-60.105-26.91-60.105-60.104V231.123
				c0-33.195,26.91-60.105,60.105-60.105h1688.495c33.195,0,60.104,26.91,60.104,60.105v551.329
				C1892.937,815.646,1866.027,842.555,1832.833,842.555z"/>
			<rect x="1517.644" y="363.795" style="fill:#B8D6FF;" width="221.048" height="22.181"/>
			<rect x="1517.644" y="432.449" style="fill:#B8D6FF;" width="254.066" height="22.181"/>
			<rect x="1517.266" y="500.727" style="fill:#B8D6FF;" width="131.443" height="22.179"/>
			<rect x="1517.266" y="569.003" style="fill:#B8D6FF;" width="202.521" height="22.181"/>
			<rect x="320.248" y="780.864" style="fill:#D6D6D6;" width="197.02" height="24.271"/>
			<rect x="272.448" y="737.635" style="fill:#D6D6D6;" width="292.62" height="24.273"/>
			<rect x="737.11" y="329.215" style="fill:#FFFFFF;" width="473.854" height="30.544"/>
			<rect x="1261.877" y="329.215" style="fill:#FFFFFF;" width="184.146" height="30.544"/>
			<rect x="737.11" y="259.65" style="fill:#FFFFFF;" width="222.511" height="30.545"/>
			<g>
				<linearGradient id="SVGID_2_" gradientUnits="userSpaceOnUse" x1="418.7578" y1="305.7291" x2="418.7578" y2="782.572">
					<stop  offset="0" style="stop-color:#D3DAE0"/>
					<stop  offset="1" style="stop-color:#FFFFFF"/>
				</linearGradient>
				<path style="fill:url(#SVGID_2_);" d="M418.759,692.967c-33.05,0-64.918-6.873-94.717-20.426
					c-81.676-37.121-134.453-119.057-134.453-208.743c0-126.364,102.805-229.171,229.17-229.171
					c126.364,0,229.168,102.806,229.168,229.171c0,89.686-52.776,171.622-134.456,208.743
					C483.673,686.094,451.807,692.967,418.759,692.967z M418.759,246.725c-119.694,0-217.072,97.378-217.072,217.072
					c0,84.953,49.992,162.565,127.363,197.729c28.217,12.833,58.398,19.341,89.709,19.341c31.308,0,61.49-6.508,89.705-19.341
					c77.374-35.164,127.366-112.776,127.366-197.729C635.829,344.104,538.451,246.725,418.759,246.725z"/>
			</g>
			<g>
				<g>
					<rect x="770.785" y="417.639" style="fill:#C9E0FF;" width="12.099" height="293.386"/>
				</g>
				<g>
					<rect x="826.378" y="417.639" style="fill:#C9E0FF;" width="12.099" height="293.386"/>
				</g>
				<g>
					<rect x="881.971" y="417.639" style="fill:#C9E0FF;" width="12.099" height="293.386"/>
				</g>
				<g>
					<rect x="937.565" y="417.639" style="fill:#C9E0FF;" width="12.099" height="293.386"/>
				</g>
				<g>
					<rect x="993.158" y="417.639" style="fill:#C9E0FF;" width="12.098" height="293.386"/>
				</g>
				<g>
					<rect x="1048.751" y="417.639" style="fill:#C9E0FF;" width="12.098" height="293.386"/>
				</g>
				<g>
					<rect x="1104.344" y="417.639" style="fill:#C9E0FF;" width="12.098" height="293.386"/>
				</g>
				<g>
					<rect x="1159.938" y="417.639" style="fill:#C9E0FF;" width="12.098" height="293.386"/>
				</g>
				<g>
					<rect x="1215.531" y="417.639" style="fill:#C9E0FF;" width="12.098" height="293.386"/>
				</g>
				<g>
					<rect x="1271.124" y="417.639" style="fill:#C9E0FF;" width="12.098" height="293.386"/>
				</g>
				<g>
					<rect x="1326.717" y="417.639" style="fill:#C9E0FF;" width="12.098" height="293.386"/>
				</g>
				<g>
					<rect x="1382.31" y="417.639" style="fill:#C9E0FF;" width="12.098" height="293.386"/>
				</g>
			</g>
			<g>
				<g>
					<rect x="770.785" y="505.352" style="fill:#FF6559;" width="12.099" height="205.673"/>
				</g>
				<g>
					<rect x="826.378" y="576.43" style="fill:#FF6559;" width="12.099" height="134.594"/>
				</g>
				<g>
					<rect x="881.971" y="459.983" style="fill:#FF6559;" width="12.099" height="251.041"/>
				</g>
				<g>
					<rect x="937.565" y="637.931" style="fill:#FF6559;" width="12.099" height="73.093"/>
				</g>
				<g>
					<rect x="993.158" y="564.332" style="fill:#FF6559;" width="12.098" height="146.693"/>
				</g>
				<g>
					<rect x="1048.751" y="509.385" style="fill:#FF6559;" width="12.098" height="201.639"/>
				</g>
				<g>
					<rect x="1104.344" y="580.967" style="fill:#FF6559;" width="12.098" height="130.058"/>
				</g>
				<g>
					<rect x="1159.938" y="490.734" style="fill:#FF6559;" width="12.098" height="220.291"/>
				</g>
				<g>
					<rect x="1215.531" y="590.041" style="fill:#FF6559;" width="12.098" height="120.984"/>
				</g>
				<g>
					<rect x="1271.124" y="517.451" style="fill:#FF6559;" width="12.098" height="193.574"/>
				</g>
				<g>
					<rect x="1326.717" y="614.238" style="fill:#FF6559;" width="12.098" height="96.787"/>
				</g>
				<g>
					<rect x="1382.31" y="517.451" style="fill:#FF6559;" width="12.098" height="193.574"/>
				</g>
			</g>
		</g>
		<g>
			<linearGradient id="SVGID_3_" gradientUnits="userSpaceOnUse" x1="324.4794" y1="478.0767" x2="380.0605" y2="478.0767">
				<stop  offset="0" style="stop-color:#D3DAE0"/>
				<stop  offset="1" style="stop-color:#FFFFFF"/>
			</linearGradient>
			<path style="fill:url(#SVGID_3_);" d="M380.06,373.947v-8.706h-55.581v8.706h3.342v192.516c0,0-0.967,24.45,24.449,24.45
				c25.416,0,24.449-24.45,24.449-24.45V373.947H380.06z"/>
			<linearGradient id="SVGID_4_" gradientUnits="userSpaceOnUse" x1="390.9665" y1="478.0767" x2="446.5491" y2="478.0767">
				<stop  offset="0" style="stop-color:#D3DAE0"/>
				<stop  offset="1" style="stop-color:#FFFFFF"/>
			</linearGradient>
			<path style="fill:url(#SVGID_4_);" d="M446.549,373.947v-8.706h-55.583v8.706h3.342v192.516c0,0-0.967,24.45,24.449,24.45
				c25.416,0,24.449-24.45,24.449-24.45V373.947H446.549z"/>
			<linearGradient id="SVGID_5_" gradientUnits="userSpaceOnUse" x1="457.4536" y1="478.0767" x2="513.0361" y2="478.0767">
				<stop  offset="0" style="stop-color:#D3DAE0"/>
				<stop  offset="1" style="stop-color:#FFFFFF"/>
			</linearGradient>
			<path style="fill:url(#SVGID_5_);" d="M513.036,373.947v-8.706h-55.583v8.706h3.342v192.516c0,0-0.967,24.45,24.449,24.45
				c25.418,0,24.45-24.45,24.45-24.45V373.947H513.036z"/>
			<path style="fill:#4E9BDE;" d="M335.308,431.332v133.559c0,0-0.672,16.962,16.962,16.962c17.633,0,16.962-16.962,16.962-16.962
				V431.332H335.308z"/>
			<path style="fill:#4E9BDE;" d="M401.795,454.088v113.367c0,0-0.67,14.398,16.962,14.398c17.633,0,16.962-14.398,16.962-14.398
				V454.088H401.795z"/>
			<path style="fill:#4E9BDE;" d="M468.284,415.106v147.958c0,0-0.672,18.789,16.96,18.789c17.633,0,16.963-18.789,16.963-18.789
				V415.106H468.284z"/>
		</g>
	</g>
	<g>
		<linearGradient id="SVGID_6_" gradientUnits="userSpaceOnUse" x1="1046.6741" y1="1248.9215" x2="1426.2866" y2="1248.9215">
			<stop  offset="0" style="stop-color:#40D5E6"/>
			<stop  offset="1" style="stop-color:#5577FF"/>
		</linearGradient>
		<path style="fill:url(#SVGID_6_);" d="M1079.842,747.301c32.732-15.653,65.311,88.549,65.311,88.549
			c55.634,73.518,133.385-24.285,125.783,85.613c-13.305,192.303,221.348,60.472,113.094,261.242
			c-108.257,200.77,95.586,113.523,28.312,275.408c-67.276,161.887,19.921,354.968-81.303,275.623
			c0,0-89.13-195.453-181.047-255.925c-91.92-60.472,55.067-132.225,26.308-214.36c-41.773-119.298-142.416-114.612-69.849-242.814
			C1179.017,892.435,968.573,800.519,1079.842,747.301z"/>
		<g>
			<path style="fill:#FFFFFF;" d="M1363.092,1660.18c-43.878-30.856-95.23-245.897-98.293-373.98
				c-1.569-65.608-20.963-92.943-38.073-117.059c-16.357-23.051-30.482-42.962-22.253-88.674
				c15.725-87.359-25.618-125.069-26.038-125.439l4.785-5.455c1.841,1.612,44.896,40.504,28.394,132.181
				c-7.687,42.713,4.985,60.574,21.03,83.188c16.836,23.727,37.788,53.258,39.411,121.084
				c3.287,137.456,55.787,340.491,95.212,368.218L1363.092,1660.18z"/>
		</g>
		<g>
			<linearGradient id="SVGID_7_" gradientUnits="userSpaceOnUse" x1="1325.1505" y1="1460.7483" x2="1668.4393" y2="1460.7483">
				<stop  offset="0" style="stop-color:#40D5E6"/>
				<stop  offset="1" style="stop-color:#5577FF"/>
			</linearGradient>
			<path style="fill:url(#SVGID_7_);" d="M1379.51,1676.12c-5.661,0.003-11.813-0.649-18.552-2.014
				c-16.91-3.418-28-12.339-32.956-26.517c-11.829-33.827,15.575-88.778,37.819-115.266c0.368-0.443,37.599-45.941,33.628-109.009
				c-0.666-10.571-1.762-20.357-2.731-28.99c-2.797-24.957-4.817-42.991,5.903-55.034c9.446-10.615,27.684-15.212,60.98-15.367
				c58.395-0.274,81.484-24.452,100.036-43.879c7.878-8.251,15.32-16.043,24.362-20.981l0,0c29.1-15.884,59.923-18.22,73.293-5.549
				c6.348,6.018,11.71,17.806,1.192,39.793c-9.611,20.091-22.077,32.814-32.095,43.034c-13.478,13.75-22.382,22.836-17.747,40.943
				c1.087,4.251,2.344,8.542,3.603,12.851c9.003,30.791,19.206,65.688-33.489,89.371c-11.183,5.025-21.372,9.025-30.362,12.551
				c-36.785,14.436-58.988,23.149-84.054,76.062c-4.852,10.24-9.135,19.947-13.277,29.335
				C1435.302,1642.245,1420.349,1676.117,1379.51,1676.12z M1591.477,1265.434c-8.052,4.397-14.79,11.45-22.593,19.623
				c-19.501,20.419-43.771,45.833-105.25,46.123c-30.614,0.143-47.76,4.133-55.593,12.933c-8.568,9.628-6.699,26.312-4.11,49.404
				c0.976,8.715,2.083,18.592,2.76,29.339c4.16,66.047-33.692,112.193-35.305,114.128c-22.018,26.215-46.958,78.4-36.534,108.21
				c4.053,11.59,13.321,18.927,27.546,21.802c49.625,10.027,63.327-21.022,86.026-72.467c4.162-9.432,8.465-19.186,13.359-29.516
				c26.296-55.51,50.828-65.136,87.961-79.71c8.912-3.496,19.015-7.461,30.038-12.415c46.931-21.092,38.463-50.053,29.499-80.715
				c-1.283-4.386-2.559-8.759-3.668-13.086c-5.648-22.068,5.49-33.435,19.594-47.824c10.143-10.351,21.639-22.084,30.732-41.088
				c4.764-9.963,8.696-23.494,0.361-31.393C1645.336,1248.386,1617.465,1251.246,1591.477,1265.434L1591.477,1265.434z"/>
		</g>
		<g>
			<linearGradient id="SVGID_8_" gradientUnits="userSpaceOnUse" x1="1354.4939" y1="1510.6676" x2="1612.1565" y2="1510.6676">
				<stop  offset="0" style="stop-color:#40D5E6"/>
				<stop  offset="1" style="stop-color:#5577FF"/>
			</linearGradient>
			<path style="fill:url(#SVGID_8_);" d="M1361.74,1718.011l-7.246-0.379c0.358-6.809,9.499-167.289,73.933-214.257
				c70.692-51.527,92.98-106.901,103.593-144.068c12.509-43.8,76.171-55.505,78.875-55.983l1.261,7.147
				c-0.617,0.111-61.899,11.402-73.157,50.826c-10.911,38.199-33.798,95.096-106.297,147.942
				C1371.031,1554.193,1361.826,1716.38,1361.74,1718.011z"/>
		</g>
		<linearGradient id="SVGID_9_" gradientUnits="userSpaceOnUse" x1="1261.448" y1="1303.3253" x2="1561.5199" y2="1303.3253">
			<stop  offset="0" style="stop-color:#40D5E6"/>
			<stop  offset="1" style="stop-color:#5577FF"/>
		</linearGradient>
		<path style="fill:url(#SVGID_9_);" d="M1509.065,909.253c-45.8-15.703-36.284,72.567-55.635,137.878
			c-19.351,65.309-215.283,28.491-133.039,192.035c82.242,163.544-104.013,54.694-48.379,197.408
			c55.636,142.716,4.838,295.352,65.311,256.527c60.472-38.824,33.974-218.543,96.866-239.896
			c62.891-21.356,73.154-46.263,10.885-104.317c-62.269-58.054,163.168-115.688,107.532-232.912
			C1496.969,998.752,1561.978,927.395,1509.065,909.253z"/>
		<g>
			<path style="fill:#FFFFFF;" d="M1365.38,1686.26c-5.759-24.431-54.944-239.438-9.052-265.425
				c40.451-22.905,39.455-112.001,33.143-196.132c-5.584-74.476,90.061-109.282,94.137-110.729l2.427,6.84
				c-0.946,0.337-94.497,34.41-89.326,103.346c6.479,86.401,7.173,178.084-36.804,202.988
				c-34.852,19.736-2.766,192.532,12.539,257.447L1365.38,1686.26z"/>
		</g>
		<linearGradient id="SVGID_10_" gradientUnits="userSpaceOnUse" x1="1192.5889" y1="1733.7372" x2="1469.489" y2="1733.7372">
			<stop  offset="0" style="stop-color:#FF9340"/>
			<stop  offset="1" style="stop-color:#FFCE45"/>
		</linearGradient>
		<polygon style="fill:url(#SVGID_10_);" points="1469.489,1609.701 1404.101,1857.773 1257.977,1857.773 1192.589,1609.701 		"/>
		<linearGradient id="SVGID_11_" gradientUnits="userSpaceOnUse" x1="1192.5889" y1="1733.7372" x2="1469.489" y2="1733.7372">
			<stop  offset="0" style="stop-color:#C97332"/>
			<stop  offset="1" style="stop-color:#FFCE45"/>
		</linearGradient>
		<path style="fill:url(#SVGID_11_);" d="M1469.489,1609.701c0,0-143.948,27.029-143.948,248.073h-67.564l-65.388-248.073H1469.489z
			"/>
	</g>
	<g>
	</g>
	<g>
		<rect x="2242.877" y="818.95" style="fill:#706865;" width="22.469" height="1021.387"/>
		<rect x="1732.351" y="818.95" style="fill:#706865;" width="22.467" height="1021.387"/>
	</g>
	<path style="fill:#BDAFAA;" d="M2340.343,1671.759h-682.991c-15.571,0-28.194-12.623-28.194-28.194V420.443
		c0-15.572,12.623-28.195,28.195-28.195h682.99c15.571,0,28.194,12.623,28.194,28.194v1223.124
		C2368.537,1659.137,2355.914,1671.759,2340.343,1671.759z"/>
	<path style="fill:#FFFFFF;" d="M2320.391,1621.765h-643.087c-15.385,0-27.858-12.472-27.858-27.858V440.709
		c0-15.386,12.473-27.858,27.858-27.858h643.087c15.385,0,27.857,12.472,27.857,27.857v1153.2
		C2348.248,1609.293,2335.776,1621.765,2320.391,1621.765z"/>
	<rect x="1888.683" y="382.546" style="fill:#706865;" width="220.327" height="49.754"/>
	<g>
		<path style="fill:#B5DEFF;" d="M1942.636,840.158c-85.617-17.361-151.066-93.101-151.066-185.035
			c0-104.116,84.707-188.824,188.825-188.824v8.469c-99.449,0-180.356,80.907-180.356,180.355
			c0,87.797,62.504,160.155,144.287,176.737c63.908,13.068,131-9.428,174.154-60.718c27.252-32.407,42.261-73.61,42.261-116.019
			c0-8.862-0.649-17.765-1.927-26.464l8.379-1.233c1.339,9.106,2.016,18.425,2.016,27.697c0,44.399-15.714,87.538-44.249,121.471
			C2079.754,830.32,2009.498,853.825,1942.636,840.158z"/>
	</g>
	<g>
		<g>
			<g>
				<path style="fill:#EEA886;" d="M1628.064,674.724c0,0,13.996-24.494-8.201-90.14c-21.469-63.488-95.783-57.732-119.401-17.057
					c-23.616,40.675-15.64,65.938,19.132,111.863C1554.363,725.31,1613.632,695.715,1628.064,674.724z"/>
			</g>
		</g>
		<g>
			<g>
				<path style="fill:#81807E;" d="M1455.454,1804.15c0,0-3.677,26.958-4.136,31.008c-0.459,4.051-40.907-2.384-40.907-2.384
					l-3.275-32.097C1407.135,1800.677,1450.398,1800.347,1455.454,1804.15z"/>
			</g>
		</g>
		<g>
			<g>
				<path style="fill:#353A3D;" d="M1451.748,1831.731c0,0,12.815,16.245,25.21,23.325c12.395,7.081,31.874,9.885,39.203,17.215
					c5.29,5.292,19.269,28.068-32.21,27.609c-51.478-0.459-76.299,3.217-81.815-5.516c-5.516-8.732,7.981-64.458,7.981-64.458
					S1422.719,1833.456,1451.748,1831.731z"/>
			</g>
		</g>
		<g>
			<g>
				<path style="fill:#81807E;" d="M1735.516,1804.15c0,0-3.677,26.958-4.136,31.008c-0.461,4.051-40.909-2.384-40.909-2.384
					l-3.275-32.097C1687.196,1800.677,1730.461,1800.347,1735.516,1804.15z"/>
			</g>
		</g>
		<g>
			<g>
				<path style="fill:#353A3D;" d="M1731.811,1831.731c0,0,12.815,16.245,25.208,23.325c12.396,7.081,58.009,12.897,65.338,20.226
					c5.29,5.292,14.09,26.588-58.344,24.597c-51.462-1.415-76.298,3.217-81.814-5.516c-5.516-8.732,7.98-64.458,7.98-64.458
					S1706.17,1832.751,1731.811,1831.731z"/>
			</g>
		</g>
		<g>
			<g>
				<path style="fill:#3B3B40;" d="M1469.072,1132.863c0,0-20.739,64.446-18.008,119.985
					c2.732,55.539-10.724,116.313-16.223,174.329c-6.131,64.68-31.225,217.8-32.134,252.398
					c-0.911,34.597-9.62,141.979-9.62,141.979l63.744,4.309c0,0,42.188-267.692,53.114-295.005
					c10.926-27.314,65.107-222.041,66.928-243.892C1578.695,1265.116,1469.072,1132.863,1469.072,1132.863z"/>
			</g>
		</g>
		<g>
			<g>
				<path style="fill:#3B3B40;" d="M1677.337,1126.152c0,0,30.491,170.4,34.134,204.394c3.64,33.99,6.069,164.498,7.89,185.744
					c1.821,21.245,12.14,278.008,21.853,309.573h-68.502c0,0-45.009-186.66-45.009-274.974s-38.084-191.996-62.666-250.266
					c-24.582-58.269-80.853-59.648-95.965-167.759C1469.072,1132.863,1656.877,1091.864,1677.337,1126.152z"/>
			</g>
		</g>
		<g>
			<g>
				<path style="fill:#EEA886;" d="M1607.749,692.054c0,0-6.319,18.389,0,31.511c6.32,13.12-80.72,5.248-80.72,5.248
					s3.936-27.117-7.436-49.424C1508.22,657.083,1607.749,692.054,1607.749,692.054z"/>
			</g>
		</g>
		<g>
			<g>
				<path style="fill:#EDDAD3;" d="M1465.034,1146.902c0,0,31.301,32.156,215.103-5.006l-2.8-15.743l-208.947,7.866
					L1465.034,1146.902z"/>
			</g>
		</g>
		<g>
			<g>
				<path style="fill:#DBDFF0;" d="M1897.987,587.477c-5.593,21.36-22.149,69.112-27.158,84.084
					c-6.216,18.578-20.346,54.723-25.589,59.385c-4.233,3.727-36.391,28.312-73.557,46.021c-9.166,4.35-18.642,8.31-28.079,11.418
					c-47.654,15.767-83.578,38.953-83.578,38.953h-221.139c5.71-46.839,21.749-80.432,27.807-91.812
					c16.856-1.086,42.372-4.115,55.149-4.659c15.963-0.622,32.817-7.652,32.817-7.652l5.631,0.388l17.012,1.205l43.614,3.029
					c0,0,32.157,3.263,41.323,5.01c9.205,1.748,71.033-11.068,83.694-12.349c1.515-0.155,3.65-0.816,6.214-1.903
					c18.719-7.846,60.78-37.012,62.333-40.857c1.748-4.348,22.837-85.597,26.993-99.617
					C1842.444,575.013,1898.569,585.301,1897.987,587.477z"/>
			</g>
		</g>
		<g>
			<g>
				<path style="fill:#DBDFF0;" d="M1436.907,865.01c0.003,0.038,0,0.038,0,0.079c6.835,27.496,17.671,87.073,20.311,114.763
					c3.302,34.098-56.391,519.99-56.391,519.99c28.118,21.824,336.018,27.883,334.698,18.68
					c-1.321-9.165-68.354-531.447-63.11-549.156c5.243-17.711,15.768-69.557,18.37-102.376
					c2.641-32.777,31.379-51.926,31.379-51.926l49.518-38.098c4.972-24.274-19.535-58.372-19.535-58.372s-75.111,8.271-85.287,6.99
					c-8.427-1.087-60.236-6.912-60.236-6.912c-12.468,3.766-22.021,5.513-29.322,6.136c-8.272,0.66-13.632-0.156-17.012-1.205
					c-4.117-1.28-5.358-2.988-5.358-2.988c0,0.117-56.421,2.386-85.869,10.679C1469.065,731.293,1429.593,786.832,1436.907,865.01z"
					/>
			</g>
		</g>
		<g>
			<g>
				<path style="fill:#FCCCA2;" d="M1519.594,679.389c0,0,11.517,1.017,36.01-7.44c24.494-8.456,26.323-51.286,31.619-46.214
					c10.807,10.353,21.015,3.208,25.096-2.916c0,0-11.955-15.746-6.415-23.327c5.54-7.581,14.56-13.115,14.56-13.115
					s-17.227-83.032-95.622-45.203C1432.991,585.495,1519.594,679.389,1519.594,679.389z"/>
			</g>
		</g>
		<g>
			<g>
				<path style="fill:#DBDFF0;" d="M1607.749,723.565l-2.762-12.004c0,0-50.038-1.016-77.339,2.943l-2.873,14.345
					C1524.774,728.849,1559.732,744.706,1607.749,723.565z"/>
			</g>
		</g>
		<g>
			<g>
				<path style="fill:#EEA886;" d="M1595.407,615.238c-4.546-7.554-21.353-12.647-23.328,8.748
					c-1.53,16.584,30.034,34.698,30.326,19.245C1602.697,627.776,1598.432,620.265,1595.407,615.238z"/>
			</g>
		</g>
		<path style="fill:#DBDFF0;" d="M1469.065,731.293c0,0-23.873,0-75.979,164.32c-17.903,56.457,81.881,99.983,81.881,99.983
			L1469.065,731.293z"/>
		<g>
			
				<rect x="1777.527" y="548.7" transform="matrix(0.573 -0.8196 0.8196 0.573 333.2081 1746.6122)" style="fill:#4DA8F2;" width="130.424" height="9.685"/>
		</g>
		<path style="fill:#EFAA88;" d="M1907.136,529.141c0,0,1.33,6.118,0.605,9.075c0,0-1.73,5.282-2.732,9.111
			c-0.314,1.216-0.561,2.283-0.647,2.988c-0.367,2.948-0.29,9.527-3.16,16.359c-2.86,6.824-15.417,29.915-15.417,29.915
			l-21.576-7.214l-19.718-0.797c0,0-6.938-44.43-5.006-51.101c0.194-0.652,0.408-1.286,0.653-1.868
			c2.185-5.489,6.116-8.655,7.59-11.405c0.547-1.006,6.664-10.647,10.049-11.075c4.697-0.601,8.197,0.889,10.309,3.352
			c0,0,9.25-0.77,14.393,2.778c0,0,8.511-0.985,13.654,5.25C1896.133,524.509,1904.878,524.48,1907.136,529.141z"/>
		<polygon style="fill:#DFE1E8;" points="1884.074,502.872 1886.35,491.595 1876.135,497.323 		"/>
	</g>
	<g>
		<g>
			<g>
				<g>
					<g>
						<g>
							<path style="fill:#EEA886;" d="M3054.016,1169.795c0,0,0.526-4.765-0.262-6.961c0,0-1.739-3.886-2.808-6.723
								c-0.336-0.902-0.609-1.694-0.731-2.224c-0.515-2.217-0.982-7.234-3.711-12.21c-2.723-4.972-20.002-23.394-20.002-23.394
								l-12.607,6.51l-12.674,4.412c0,0-1.408,34.708,0.596,39.634c0.199,0.481,0.411,0.948,0.646,1.371
								c2.101,4.007,5.351,6.104,6.691,8.084c0.497,0.722,5.925,7.578,8.539,7.636c3.627,0.082,6.174-1.331,7.585-3.377
								c0,0,7.11-0.15,10.744-3.264c0,0,6.561,0.073,9.983-5.088C3046.005,1174.201,3052.668,1173.528,3054.016,1169.795z"/>
						</g>
					</g>
				</g>
			</g>
		</g>
		<g>
			<g>
				<path style="fill:#3A3F47;" d="M2733.82,590.524c0,0-16.815-108.777,73.275-106.771c90.093,2.008,85.079,85.683,74.261,121.851
					c-7.983,26.685-23.104,36.701,15.832,110.957c38.935,74.258-33.717,74.258-33.717,74.258l-56.375-77.469L2733.82,590.524z"/>
			</g>
		</g>
		<g>
			<g>
				<path style="fill:#DBDFF0;" d="M2691.161,980.8c-0.45,0.564-1.099,1.362-1.932,2.38v0.006
					c-2.124,2.596-5.424,6.591-9.587,11.561c-24.052,28.743-76.902,90.043-97.024,101.105c-14.263,7.839-16.448-16.795-2.26-31.943
					c12.935-13.811,62.882-102.909,82.219-122.086c9.393-9.313,22.02-97.331,22.02-97.331s11.687,73.395,10.386,81.836
					C2693.688,934.776,2699.396,970.541,2691.161,980.8z"/>
			</g>
		</g>
		<g>
			<g>
				<g>
					<path style="fill:#EEA886;" d="M2580.357,1063.909c0,0-8.301,10.935-12.61,12.3c-4.307,1.366-9.278,8.95-12.882,10.904
						c-3.605,1.958-15.432,3.841-18.287,7.147c-1.167,1.351-4.963,12.46-7.643,14.95c-2.681,2.49-8.745,6.878-6.459,9.119
						c2.288,2.241,8.838-0.215,8.838-0.215s-2.298,2.417-0.899,4.988c2.722,5,6.313,4.934,6.313,4.934s-0.693,3.985,0.97,5.792
						c3.666,3.986,7.135,3.822,7.135,3.822s0.645,2.982,3.685,5.096c3.889,2.702,8.069,0.625,8.069,0.625s4.091,4.476,7.257,3.276
						c3.164-1.201,4.794-3.742,6.97-5.329c2.176-1.589,16.404-21.253,20.463-38.881c4.059-17.629,14.145-29.609,14.145-29.609
						L2580.357,1063.909z"/>
				</g>
			</g>
		</g>
		<g>
			<g>
				<path style="fill:#DB9C7C;" d="M2531.979,1115.918c0,0,12.471-16.603,19.593-16.903c7.123-0.299,2.963,5.941,2.963,5.941
					s4.007-6.239,9.411-3.563c5.402,2.679,0.136,9.726,0.136,9.726s4.332-3.912,8.626,0.644c4.294,4.558-1.431,9.41-1.431,9.41
					s9.238-2.135,8.084,5.505c-1.948,12.897-14.903,20.337-14.903,20.337s-4.156,1.495-7.98-3.17c0,0-8.454,3.995-12.013-5.718
					c0,0-10.612-1.448-8.268-9.71C2536.197,1128.418,2524.597,1125.622,2531.979,1115.918z"/>
			</g>
		</g>
		<g>
			<g>
				<path style="fill:#2F4563;" d="M2623.255,1816.793c0,0-35.385,59.981-50.326,69.779c-20.281,13.299-7.575,26.746,2.056,26.76
					c9.633,0.012,58.818,3.53,69.657-8.768c10.838-12.299,16.214-49.163,26.296-58.802c10.08-9.64,19.307-45.215-4.911-57.279
					C2639.472,1775.255,2623.255,1816.793,2623.255,1816.793z"/>
			</g>
		</g>
		<g>
			<g>
				<polygon style="fill:#2F4563;" points="2679.633,1828.204 2670.278,1900.221 2665.323,1900.439 2666.864,1848.631 				"/>
			</g>
		</g>
		<g>
			<g>
				<path style="fill:#2F4563;" d="M2926.647,1758.313c0,0-8.479,69.121-18.263,84.074c-13.279,20.291,3.74,27.545,12.575,23.707
					c8.835-3.836,55.331-20.258,60.356-35.861c5.023-15.605-4.775-51.548,0.617-64.412c5.39-12.863-0.363-49.161-27.381-50.547
					C2924.922,1713.755,2926.647,1758.313,2926.647,1758.313z"/>
			</g>
		</g>
		<g>
			<g>
				<path style="fill:#EEA886;" d="M2926.253,1724.182c0,0-5.192,84.409-7.448,96.713c-2.258,12.304,16.198,4.247,25.668-5.257
					c9.469-9.504,19.194-68.238,18.583-78.443c-0.611-10.204-8.504-21.921-8.504-21.921L2926.253,1724.182z"/>
			</g>
		</g>
		<g>
			<g>
				<polygon style="fill:#2F4563;" points="2982.89,1746.253 3003.084,1816.009 2998.628,1818.19 2979.345,1770.079 				"/>
			</g>
		</g>
		<g>
			<g>
				<path style="fill:#EEA886;" d="M2778.948,1233.488c-1.763,8.513-13.042,44.137-25.671,83.722v0.006
					c-11.519,36.089-24.158,75.46-31.736,100.587c-2.828,9.375-4.955,16.766-6.052,21.262c-7.273,29.745,0.906,76.411,3.548,115.407
					c2.647,39.001-53.969,257.506-53.969,257.506c-9.913,4.626-28.541-26.631-28.541-26.631
					c7.273-13.882,6.251-260.351,2.285-275.552c-3.969-15.201-6.611-57.508-2.643-74.036c0.811-3.396,1.208-7.872,1.298-13.264
					c0.335-20.859-3.962-55.343-6.586-93.16c-3.304-47.594,15.203-165.917,17.844-176.492c0.243-0.975,0.628-2.341,1.122-4.024
					c4.868-16.59,20.546-63.703,20.546-63.703c31.798-9.461,55.74-11.171,73.612-7.526c23.659,4.817,36.678,19.015,43.18,37.045
					C2802.731,1157.649,2781.231,1222.441,2778.948,1233.488z"/>
			</g>
		</g>
		<g>
			<g>
				<path style="fill:#EEA886;" d="M2957.931,1721.125l-32.198,11.322c-5.46-26.431-136.208-211.418-144.183-231.908
					c-7.975-20.49-16.483-60.149-16.483-74.693c0-2.596-0.187-6.978-0.557-12.663c-1.41-22.042-5.446-63.612-11.234-95.973
					c-1.076-6.035-2.217-11.749-3.413-16.959c-6.405-27.903-7.514-123.245-7.589-179.314c-0.035-24.951,0.135-42.126,0.135-42.126
					s0.556-0.441,1.594-1.222c12.055-9.12,89.374-64.736,116.331-12.75c7.12,13.735,11.767,28.477,14.591,43.85
					c8.65,47.112,0.164,100.177-6.812,148.52c-5.969,41.365-17.408,99.815-20.696,143.186c-1.813,23.864-1.155,43.169,4.241,52.549
					c15.208,26.443,30.069,48.825,60.813,142.123C2922.475,1625.412,2957.931,1721.125,2957.931,1721.125z"/>
			</g>
		</g>
		<g>
			<path style="fill:#2F4563;" d="M2868.113,1257.209c-5.969,41.365-17.408,99.815-20.696,143.186c0,0-33.736,6.735-82.906,12.788
				c-13.314,1.638-27.756,3.225-42.969,4.62c-26.352,2.409-55.003,4.229-84.075,4.693c0.335-20.859-3.962-55.343-6.586-93.16
				c-3.304-47.594,15.203-165.917,17.844-176.492c0.243-0.975,0.628-2.341,1.122-4.024c23.783-13.088,57.899-21.924,92.429-27.881
				c15.173-2.618,30.42-4.682,44.908-6.303c45.271-5.078,83.082-5.868,87.741-5.945
				C2883.575,1155.801,2875.089,1208.866,2868.113,1257.209z"/>
		</g>
		<g>
			<path style="fill:#EEA886;" d="M2925.733,1732.447c0,0,15.117,19.544,32.198-11.322
				C2957.931,1721.125,2938.95,1700.837,2925.733,1732.447z"/>
		</g>
		<g>
			<g>
				<path style="fill:#EEA886;" d="M2636.526,1785.347c0,0-38.477,75.307-45.46,85.685c-6.984,10.377,13.153,10.363,25.632,5.434
					c12.477-4.929,44.854-54.891,48.37-64.489c3.516-9.598,5.308-20.822,5.308-20.822L2636.526,1785.347z"/>
			</g>
		</g>
		<g>
			<path style="fill:#EEA886;" d="M2636.526,1785.347c0,0-20.437,38.439,33.849,5.809
				C2670.375,1791.156,2660.143,1773.947,2636.526,1785.347z"/>
		</g>
		<g>
			<g>
				<path style="fill:#EEA886;" d="M2786.832,501.203c0,0-61.012,9.633-63.42,96.335c-2.408,86.701,16.457,105.164,69.842,87.102
					c53.386-18.063,70.244-108.777,71.448-122.826C2865.907,547.765,2869.118,490.767,2786.832,501.203z"/>
			</g>
		</g>
		<g>
			<g>
				<path style="fill:#4E9BDE;" d="M2893.973,802.77c0.237,29.853-34.08,101.214-39.368,123.249s-13.662,29.087-6.611,57.29
					c7.052,28.206,35.499,128.107,28.029,131.99c-111.603,58.01-210.433,54.241-226.177,33.519c0,0,36.089-134.683,38.733-150.106
					c2.644-15.424-3.211-73.251-4.533-89.556c-1.322-16.305-17.829-51.401-17.272-67.744c0.567-16.65,8.744-31.028,20.184-48.811
					c3.545-5.513,7.269-11.127,10.993-16.587c12.119-17.787,24.229-33.934,30.174-39.496c4.421-4.135,8.564-7.302,12.146-9.696
					c0.021-0.014,0.035-0.017,0.035-0.017c7.475-4.985,12.498-6.594,12.498-6.594l52.444-8.372c0,0,32.686,11.823,51.486,16.223
					C2856.732,728.062,2893.429,733.414,2893.973,802.77z"/>
			</g>
		</g>
		<g>
			<g>
				<path style="fill:#6EA2E8;" d="M2740.304,726.805l-30.395,47.903l-28.054,44.212c0.065-0.238,1.935-6.932,5.102-26.32
					c0.605-3.68,1.252-7.818,1.944-12.454c0.203-1.371,0.503-2.732,0.882-4.077c0,0,0,0,0-0.003
					c12.005-27.68,49.13-48.552,50.487-49.245C2740.291,726.808,2740.304,726.805,2740.304,726.805z"/>
			</g>
		</g>
		<g>
			<g>
				<path style="fill:#EEA886;" d="M2827.577,645.588c-5.289,9.986-10.873,71.979-10.873,71.979s-74.623,28.206-66.986,12.252
					c3.463-7.241,4.482-16.637,4.552-24.737c0.067-6.386-0.458-11.964-0.828-15.059c-0.194-1.631-0.344-2.57-0.344-2.57
					S2832.865,635.596,2827.577,645.588z"/>
			</g>
		</g>
		<g>
			<g>
				<path style="fill:#3A3F47;" d="M2761.945,563.419c0,0,21.832,26.674,50.331,46.745c28.499,20.07,23.527,60.428,23.527,60.428
					s74.359-156.544,3.663-167.381c-70.696-10.838-114.046-11.641-116.053,94.328
					C2723.412,597.538,2755.524,562.616,2761.945,563.419z"/>
			</g>
		</g>
		<g>
			<g>
				<path style="fill:#A77860;" d="M2804.453,679.289c-11.453,16.897-50.179,25.794-50.179,25.794s0,0-0.005,0
					c0.067-6.386-0.458-11.964-0.828-15.059C2777.439,695.379,2804.453,679.289,2804.453,679.289z"/>
			</g>
		</g>
		<g>
			<path style="fill:#DBDFF0;" d="M2689.91,775.741c0-0.002-0.001-0.002-0.001-0.002s-1.622,3.357-2.952,16.862l10.993-16.587
				c0,0,19.629-28.145,26.355-35.464c6.727-7.319,15.966-13.728,15.966-13.728S2701.649,745.379,2689.91,775.741z"/>
		</g>
		<g>
			<path style="fill:#6EA2E8;" d="M2841.555,833.22c0,0,56.153-23.807,69.539-27.504c0,0-23.142-83.919-70.602-78.705
				C2789.198,732.646,2841.555,833.22,2841.555,833.22z"/>
		</g>
		<g>
			<path style="fill:#EEA886;" d="M2752.802,720.211c0,0-35.162,54.068-23.26,58.791c11.904,4.725,76.335-6.303,103.728-57.658
				C2833.271,721.344,2792.312,700.341,2752.802,720.211z"/>
		</g>
		<g>
			<path style="fill:#DBDFF0;" d="M2572.192,1073.116c0,0,23.938,11.826,29.451,22.061c0,0,42.253-60.451,45.997-63.188
				l-63.985,27.881L2572.192,1073.116z"/>
		</g>
		<g>
			<path style="fill:#DBDFF0;" d="M3000.108,1131.283c0,0,24.899-6.137,33.426-6.797l-37.79-90.108l-13.948,50.776
				C2981.797,1085.154,2999.959,1128.948,3000.108,1131.283z"/>
		</g>
		<g>
			<path style="fill:#2F4563;" d="M2684.114,910.048c-0.08-0.737-0.127-1.16-0.127-1.234c0.014,0.039,0.033,0.149,0.061,0.343
				C2684.074,909.356,2684.1,909.652,2684.114,910.048z"/>
		</g>
		<g>
			<path style="fill:#9EA1AD;" d="M2689.229,983.18v0.006c-2.124,2.596-15.246,18.234-19.409,23.203
				c0,0,14.683-85.981,14.293-96.335C2685.046,918.329,2690.671,965.426,2689.229,983.18z"/>
		</g>
		<path style="fill:#DBDFF0;" d="M2816.907,715.384c0,0-39.806,53.351-42.19,150.646c-2.385,97.295,32.818,511.046,27.974,572.236
			c0,0,86.005-32.515,108.403-50.579c22.4-18.066-38.983-312.853-46.563-339.744c-7.581-26.893-23.313-112.393,46.563-242.227
			c0,0-15.065-64.916-44.131-76.221C2837.895,718.19,2816.907,715.384,2816.907,715.384z"/>
		<path style="fill:#DBDFF0;" d="M3020.422,1110.898c-11.417-38.002-36.165-110.404-40.916-125.522
			c-12.401-39.474-19.044-48.74-36.764-101.812c-6.906-20.681-21.116-53.945-31.646-77.841c-0.002-0.003,0-0.006-0.002-0.009
			c-8.039-30.708-24.077-54.462-35.177-67.159c-11.099-12.695-42.646-17.214-42.646-17.214s4.354,5.827,10.838,14.296
			c-2.213,0.25-4.2,0.021-6.57,0.622c-42.047,10.642,6.075,80.256,9.431,89.499c3.356,9.243,63.34,112.145,67.676,121.542
			c14.986,32.48,23.835,39.904,35.221,70.445c15.38,41.27,40.442,81.961,52.803,104.711
			C3007.865,1132.016,3024.799,1125.473,3020.422,1110.898z"/>
		<path style="fill:#DBDFF0;" d="M2752.802,720.211c0,0-36.879,39.964-41.723,120.384s-8.882,175.765-21.615,258.411
			c-12.731,82.645-33.078,351.033-33.078,351.033s-28.1-21.316-33.913-34.88c-5.813-13.564,14.775-262.974,38.756-332.328
			c23.983-69.356,29.963-79.249,22.884-139.855c-7.079-60.606-21.177-85.644-17.427-108.433
			C2670.436,811.755,2706.79,736.121,2752.802,720.211z"/>
	</g>
	<g>
		<g>
			<rect x="398.22" y="1190.373" style="fill:#E2D2CA;" width="234.704" height="13.933"/>
		</g>
		<g>
			
				<rect x="429.675" y="1240.564" transform="matrix(-1 -1.224647e-16 1.224647e-16 -1 879.9161 3114.7427)" style="fill:#706865;" width="20.566" height="633.615"/>
		</g>
		<g>
			<rect x="596.191" y="1186.423" style="fill:#CCBDB7;" width="163.141" height="19.897"/>
		</g>
		<g>
			<rect x="646.872" y="1016.664" style="fill:#998E89;" width="61.779" height="187.641"/>
		</g>
		<g>
			<rect x="314.027" y="1204.539" style="fill:#B59074;" width="903.904" height="36.025"/>
		</g>
		<g>
			<path style="fill:#DBDFF0;" d="M140.547,986.483c0,0-9.887,138.639,17.203,155.232c16.969,10.392,84.63,45.453,82.623,52.027
				c-2.006,6.573-38.204,58.495-38.204,58.495s-129.963-85.585-134.154-112.556c-4.094-26.35,6.398-202.996,24.259-211.132
				c13.379-6.095,20.443-1.054,37.305,11.466C153.242,957.584,140.547,986.483,140.547,986.483z"/>
		</g>
		<g>
			<g>
				<g>
					<path style="fill:#424773;" d="M300.447,1787.667c0,0-4.041,28.051-4.546,32.265s-44.958-2.482-44.958-2.482l-3.6-33.396
						C247.344,1784.054,294.891,1783.71,300.447,1787.667z"/>
				</g>
			</g>
		</g>
		<g>
			<g>
				<g>
					<path style="fill:#292C47;" d="M296.375,1816.366c0,0,14.084,16.903,27.706,24.271c13.623,7.366,35.029,10.286,43.085,17.913
						c5.815,5.504,21.178,29.205-35.397,28.726c-56.577-0.478-83.855,3.349-89.917-5.739c-6.062-9.087,8.771-67.073,8.771-67.073
						S264.021,1819.288,296.375,1816.366z"/>
				</g>
			</g>
		</g>
		<g>
			<g>
				<g>
					<path style="fill:#424773;" d="M585.252,1787.932c0,0-4.041,28.051-4.546,32.266c-0.505,4.214-44.958-2.482-44.958-2.482
						l-3.6-33.398C532.148,1784.319,579.695,1783.975,585.252,1787.932z"/>
				</g>
			</g>
		</g>
		<g>
			<g>
				<g>
					<path style="fill:#292C47;" d="M581.179,1816.631c0,0,14.084,16.904,27.706,24.271c13.623,7.367,63.752,13.42,71.806,21.045
						c5.815,5.505,15.485,27.668-64.12,25.595c-56.556-1.472-83.854,3.348-89.916-5.74c-6.062-9.087,8.771-67.071,8.771-67.071
						S548.05,1819.88,581.179,1816.631z"/>
				</g>
			</g>
		</g>
		<g>
			<g>
				<g>
					<path style="fill:#292C47;" d="M157.071,1303.101c0,0,161.612,27.346,198.115,33.079
						c36.503,5.731,234.421,54.981,259.173,69.988c19.702,11.945-10.334,298.839-17.35,408.296h-77.956l-5.652-328.337
						c-93.547,2.338-160.302-21.884-228.422-11.538c-68.122,10.348-124.914,25.054-168.202-33.011
						C116.776,1441.578,115.17,1315.783,157.071,1303.101z"/>
				</g>
			</g>
		</g>
		<g>
			<g>
				<g>
					<path style="fill:#292C47;" d="M316.366,1814.731l-75.971-4.697l-7.404-323.907c-40.272,1.004-54.077-1.548-86.666-5.501
						l-61.338-142.575c53.756,10.747,225.987,54.188,248.953,68.114C353.644,1418.118,323.382,1705.269,316.366,1814.731z"/>
				</g>
			</g>
		</g>
		<g>
			<g>
				<g>
					<path style="fill:#EEA886;" d="M231.466,697.313c0,0,59.244-16.372,81.848,29.619c22.602,45.99,12.356,133.179-17.503,141.382
						c-29.859,8.201-72.796-1.243-85.191-29.868c-12.397-28.624-22.282-69.3-19.316-95.639
						C194.271,716.469,215.734,703.609,231.466,697.313z"/>
				</g>
			</g>
		</g>
		<g>
			<g>
				<g>
					<path style="fill:#EEA886;" d="M280.329,859.137c0,0-0.65,34.976,3.205,42.433c3.857,7.455-82.495,5.584-82.495,5.584
						s13.609-42,5.889-77.784C199.286,793.952,280.329,859.137,280.329,859.137z"/>
				</g>
			</g>
		</g>
		<g>
			<g>
				<g>
					<path style="fill:#3A3F47;" d="M202.275,816.125c0,0,4.617,9.387,26.969,7.871c22.352-1.515,51.832-28.479,61.32-30.89
						c9.49-2.409,10.054-7.81,10.054-7.81l5.022,8.926l9.723,1.481c0,0-6.608-27.026,7.787-36.542
						c14.396-9.516-6.483-86.158-79.366-67.673c0,0-55.625,10.187-56.371,41.247C186.667,763.795,191.478,799.674,202.275,816.125z"
						/>
				</g>
			</g>
		</g>
		<g>
			<g>
				<g>
					<path style="fill:#E2D2CA;" d="M288.075,900.672c0,0-0.243-14.248-6.7-15.614c-6.458-1.366-67.879-9.814-75.804-6.699
						l-3.402,18.813C202.169,897.172,217.441,906.571,288.075,900.672z"/>
				</g>
			</g>
		</g>
		<g>
			<g>
				<g>
					<path style="fill:#EEA886;" d="M305.848,778.926c-1.657-11.676-14.935-25.089-22.537-6.9
						c-7.604,18.187,5.132,44.674,13.663,43.253C305.503,813.86,308.097,794.771,305.848,778.926z"/>
				</g>
			</g>
		</g>
		<g>
			<g>
				<g>
					<path style="fill:#323657;" d="M545.337,1069.001c-0.03-0.014-0.064-0.018-0.106-0.009
						C545.676,1069.186,545.739,1069.204,545.337,1069.001z"/>
				</g>
			</g>
		</g>
		<g>
			<g>
				<g>
					<path style="fill:#3A3F47;" d="M214.185,705.653c0,0-72.234-3.399-12.607,109.366L214.185,705.653z"/>
				</g>
			</g>
		</g>
		<g>
			<g>
				<polygon style="fill:#918783;" points="53.241,1853.154 58.614,1868.268 285.659,1797.92 274.778,1767.31 				"/>
			</g>
		</g>
		<g>
			<g>
				<rect x="267.641" y="1540.306" style="fill:#918783;" width="25.806" height="246.846"/>
			</g>
		</g>
		<g>
			<g>
				<rect x="204.44" y="1527.189" style="fill:#5E5854;" width="152.207" height="14.547"/>
			</g>
		</g>
		<g>
			<g>
				<polygon style="fill:#918783;" points="509.843,1853.154 504.47,1868.268 277.424,1797.92 287.402,1765.388 				"/>
			</g>
		</g>
		<g>
			<g>
				<polygon style="fill:#918783;" points="349.874,1866.652 349.874,1884.234 277.424,1797.92 287.402,1765.388 				"/>
			</g>
		</g>
		<g>
			<g>
				<path style="fill:#BFB2AC;" d="M531.061,1874.179c0,11.717-9.499,21.218-21.218,21.218c-11.719,0-21.218-9.501-21.218-21.218
					c0-11.72,9.499-21.219,21.218-21.219C521.562,1852.959,531.061,1862.458,531.061,1874.179z"/>
			</g>
		</g>
		<g>
			<g>
				<path style="fill:#BFB2AC;" d="M351.677,1874.179c0,11.717-9.499,21.218-21.219,21.218c-11.717,0-21.218-9.501-21.218-21.218
					c0-11.72,9.501-21.219,21.218-21.219C342.178,1852.959,351.677,1862.458,351.677,1874.179z"/>
			</g>
		</g>
		<g>
			<g>
				<path style="fill:#BFB2AC;" d="M74.459,1874.179c0,11.717-9.499,21.218-21.218,21.218c-11.719,0-21.219-9.501-21.219-21.218
					c0-11.72,9.5-21.219,21.219-21.219C64.96,1852.959,74.459,1862.458,74.459,1874.179z"/>
			</g>
		</g>
		<g>
			<path style="fill:#E2D2CA;" d="M447.467,1527.189H115.616c-7.935,0-14.367-6.432-14.367-14.367v-26.361
				c0-7.935,6.432-14.367,14.367-14.367h331.851c7.935,0,14.367,6.432,14.367,14.367v26.361
				C461.834,1520.756,455.401,1527.189,447.467,1527.189z"/>
		</g>
		<g>
			<rect x="1081.716" y="1240.564" style="fill:#706865;" width="20.566" height="633.615"/>
		</g>
		<g>
			<path style="fill:#B8ABA5;" d="M930.156,1107.053H425.367c-7.915,0-14.332-6.417-14.332-14.332V745.062
				c0-7.916,6.417-14.333,14.333-14.333h504.787c7.916,0,14.333,6.417,14.333,14.333v347.659
				C944.488,1100.636,938.071,1107.053,930.156,1107.053z"/>
		</g>
		<g>
			<rect x="431.927" y="751.071" style="fill:#F5F7FF;" width="491.669" height="297.009"/>
		</g>
		<g>
			<path style="fill:#918681;" d="M901.747,1076.098c0,8.444-8.871,15.291-19.817,15.291c-10.944,0-19.817-6.847-19.817-15.291
				c0-8.444,8.873-15.29,19.817-15.29C892.876,1060.809,901.747,1067.654,901.747,1076.098z"/>
		</g>
		<g>
			<path style="fill:#998E89;" d="M788.196,1205.02v-6.697c0,0-9.414-41.653-76.009-41.653c-66.593,0-65.245,48.35-65.245,48.35
				H788.196z"/>
		</g>
		<g>
			<g>
				<path style="fill:#EEA886;" d="M646.133,1162.859c0,0,14.468-1.124,19.768-4.323c5.299-3.199,37.009-24.526,44.46-21.112
					c7.449,3.414,57.018,18.599,55.296,25.848c-1.719,7.249-6.307,6.55-9.804,5.267c-3.496-1.283-39.491-8.836-42.668-7.566
					c0,0,35.355,12.9,35.497,22.309c0.143,9.411-7.399,11.707-10.751,15.264c-3.354,3.559-7.378,12.397-16.49,13.076
					c-9.111,0.678-53.569-14.794-62.721-15.497c-9.153-0.707-26.092,0.566-27.243-0.925
					C630.327,1193.712,646.133,1162.859,646.133,1162.859z"/>
			</g>
		</g>
		<g>
			<g>
				<g>
					<path style="fill:#DBDFF0;" d="M382.753,920.416c-46.126-8.106-94.68-19.745-94.68-19.745l-85.907-3.501
						c0,0-78.843,17.356-109.893,31.381c-2.946,1.33-2.96,70.337-11.043,88.433l25.744,54.312c0,0,14.872,107.582,17.957,155.431
						c1.418,21.964-4.004,212.279-4.004,212.279s7.716,3.809,66.348,10.272c58.63,6.462,205.124-2.338,206.046-9.261
						c0.926-6.928-28.37-257.856-29.666-270.852c-1.991-19.944,5.76-112.102,5.76-112.102
						c11.047,14.838,39.209,81.849,68.563,113.731c17.27,18.757,102.767,30.256,118.883,30.793
						c35.08,1.169,99.079,8.154,100.949,4.744c1.494-2.048,5.577-56.808,1.563-58.143c-3.512-1.174-122.349-8.013-152.794-24.167
						c-11.138-5.91-44.435-78.517-44.435-78.517S408.2,931.852,382.753,920.416z"/>
				</g>
			</g>
		</g>
		<g>
			<path style="fill:#E2D2CA;" d="M238.094,1433.506H44.6c-15.236,0-27.587-12.351-27.587-27.587v-289.23
				c0-15.235,12.351-27.586,27.586-27.586h193.495c15.235,0,27.586,12.351,27.586,27.586v289.231
				C265.679,1421.155,253.329,1433.506,238.094,1433.506z"/>
		</g>
		<g>
			<path style="fill:#E2D2CA;" d="M221.615,1513.476c-36.654,0-66.392-12.312-88.387-36.597
				c-49.709-54.88-40.777-151.357-40.372-155.437c0.755-7.604,7.542-13.162,15.132-12.403c7.601,0.753,13.153,7.523,12.404,15.123
				c-0.106,1.101-8.027,88.549,33.399,134.201c16.756,18.466,38.942,27.442,67.824,27.442c7.64,0,13.835,6.195,13.835,13.837
				C235.451,1507.283,229.256,1513.476,221.615,1513.476z"/>
		</g>
		<g>
			<g>
				<g>
					<path style="fill:#DFE1E8;" d="M608.753,790.419H468.84c-1.134,0-2.054-0.919-2.054-2.054v-11.584
						c0-1.134,0.919-2.054,2.054-2.054h139.913c1.135,0,2.055,0.92,2.055,2.055v11.582
						C610.807,789.499,609.887,790.419,608.753,790.419z"/>
				</g>
			</g>
		</g>
		<g>
			<g>
				<g>
					<path style="fill:#DFE1E8;" d="M608.754,824.076H468.84c-1.134,0-2.054-0.919-2.054-2.054v-11.583
						c0-1.135,0.92-2.055,2.055-2.055h139.912c1.135,0,2.055,0.92,2.055,2.055v11.583
						C610.807,823.156,609.888,824.076,608.754,824.076z"/>
				</g>
			</g>
		</g>
		<g>
			<g>
				<g>
					<path style="fill:#DFE1E8;" d="M603.898,1024.423H473.694c-3.815,0-6.908-3.093-6.908-6.908V853.894
						c0-3.815,3.093-6.908,6.908-6.908h130.205c3.815,0,6.908,3.093,6.908,6.908v163.62
						C610.807,1021.329,607.714,1024.423,603.898,1024.423z"/>
				</g>
			</g>
		</g>
		<g>
			<g>
				<g>
					<path style="fill:#DFE1E8;" d="M885.424,1024.423H650.821c-6.041,0-10.938-4.897-10.938-10.938V785.665
						c0-6.04,4.896-10.937,10.937-10.937h234.604c6.04,0,10.936,4.896,10.936,10.937v227.822
						C896.36,1019.526,891.464,1024.423,885.424,1024.423z"/>
				</g>
			</g>
		</g>
	</g>
	<g>
		<g>
			<g>
				<path style="fill:#8E4F3A;" d="M1949.442,894.399c0,0-10.183-22.021-11.843-25.336c-1.66-3.314-11.391-8.58-22.955-11.494
					c-11.232-2.829-26.512-8.5-28.259-7.411c-1.745,1.089-3.786,1.243-5.865,6.094c-2.077,4.852-1.168,10.095-1.168,10.095
					s-5.373,4.776-3.763,11.153c0,0-4.847,4.725-1.836,11.669c0,0-4.611,4.741-1.994,9.6c0,0,9.02,5.119,11.81,7.977
					c2.79,2.86,22.278,12.221,42.351,18.322C1925.92,925.067,1946.833,924.415,1949.442,894.399z"/>
			</g>
		</g>
		<g>
			<g>
				<path style="fill:#8E4F3A;" d="M1925.92,925.067c0,0,24.899,4.346,33.341-0.516c8.441-4.861-1.386-30.224-1.386-30.224
					l-15.764-9.528L1925.92,925.067z"/>
			</g>
		</g>
		<g>
			<g>
				<path style="fill:#5E3527;" d="M1916.677,883.728c0,0,0.38,12.181,2.218,15.547c1.838,3.366-22.968,8.611-22.968,8.611
					S1901.882,884.586,1916.677,883.728z"/>
			</g>
		</g>
		<g>
			<g>
				<path style="fill:#7A4432;" d="M1889.51,851.213c0,0,27.193,13.209,25.607,17.852c-1.586,4.643-4.985,5.387-4.985,5.387
					l8.727,10.515c0,0,1.848,10.224-9.828,9.25c0,0,2.715,9.369-8.447,7.084c0,0-0.966,6.982-6.323,6.836
					c-5.357-0.145-22.502-9.369-22.502-9.369s-3.323-3.659,1.416-9.684c0,0-3.151-6.721,1.967-11.908c0,0-1.562-8.263,4.016-13.816
					c0,0-0.567-9.364,7.455-13.337C1886.614,850.024,1888.368,850.647,1889.51,851.213z"/>
			</g>
		</g>
		<g>
			<g>
				<path style="fill:#8E4F3A;" d="M1936.791,868.557c0,0-20.743,0.441-31.963,5.657c-2.537,1.18-4.781,2.785-4.643,5.587
					c0.139,2.8,4.373,6.156,13.367,6.424c8.995,0.267,20.499,4.728,20.499,4.728S1943.379,888.519,1936.791,868.557z"/>
			</g>
		</g>
		<g>
			<path style="fill:#8E4F3A;" d="M1879.159,863.361c0,0,31.046,10.623,33.16,13.189s6.1-8.764,4.141-10.832
				c-1.959-2.068-26.12-14.954-28.785-15.667C1885.01,849.339,1875.887,855.571,1879.159,863.361z"/>
		</g>
		<g>
			<path style="fill:#8E4F3A;" d="M1893.455,851.346c0,0-48.343-9.904-49.328-4.013c-0.986,5.891,3.695,6.882,43.313,18.44
				C1925.961,877.013,1893.455,851.346,1893.455,851.346z"/>
		</g>
		<g>
			<path style="fill:#353A3D;" d="M2225.666,1842.868c0,0-15.408,23.051-37.018,28.03c-21.61,4.979-42.898,12.9-43.06,26.537
				c-0.162,13.64,62.481,21.774,87.214,8.024c36.911-20.519,40.662-14.334,44.754-24.59c4.092-10.259-4.916-37.687-4.649-40.947
				C2273.236,1835.889,2225.666,1842.868,2225.666,1842.868z"/>
		</g>
		<g>
			<path style="fill:#81807E;" d="M2228.06,1831.496c0,0-2.811,11.136-2.394,11.371c0.418,0.235,48.7,5.987,47.24-2.946
				c-1.184-7.247-2.875-15.123-2.875-15.123L2228.06,1831.496z"/>
		</g>
		<g>
			<path style="fill:#353A3D;" d="M2388.155,1841.338c0,0-10.99,22.049-29.766,29.56c-20.07,8.028-36.166,17.254-35.801,30.542
				c0.367,13.289,49.066,26.756,84.495,1.252c22.384-16.113,29.478-16.19,33.068-26.338c3.592-10.148-6.235-36.513-6.101-39.702
				C2434.216,1832.715,2388.155,1841.338,2388.155,1841.338z"/>
		</g>
		<g>
			<path style="fill:#81807E;" d="M2387.608,1829.887c0,0,0.132,11.238,0.547,11.45c0.416,0.215,47.081,4.061,45.896-4.685
				c-0.943-6.944-4.527-15.333-4.527-15.333L2387.608,1829.887z"/>
		</g>
		<g>
			<path style="fill:#2D3133;" d="M2216.508,1156.337c0,0-43.354,191.231-53.255,249.483
				c-8.428,49.577-15.147,101.202-11.108,136.992c4.999,44.311,67.724,273.957,65.103,286.948
				c-2.623,12.992,74.781,5.091,74.781,5.091s-56.85-259.174-47.321-306.848c7.058-35.311,68.898-269.883,78.376-257.85
				s21.23,221.38,28.249,256.131c7.018,34.75,28.565,309.339,28.565,309.339s48.177,7.109,61.045-3.783
				c0,0,5.857-234.463,1.386-299.617c-1.706-24.829,29.091-297.713-10.398-407.571
				C2411.06,1066.593,2216.508,1156.337,2216.508,1156.337z"/>
		</g>
		<g>
			<path style="fill:#DBDFF0;" d="M1933.38,934.494c0,0,150.191,33.3,180.077,25.947c13.815-3.398,32.013-22.469,49.305-44.89
				c5.701-7.384,11.291-15.133,16.61-22.804c0.017-0.017,0.017-0.032,0.017-0.032c21.215-30.632,37.841-59.993,37.841-59.993
				s62.709-73.49,12.387-106.251c0,0-18.263-6.844-35.032,11.132c-16.786,17.975-36.476,55.579-40.875,65.17
				c-4.397,9.576-65.994,98.421-69.186,100.423c-3.193,2.001-30.107-5.081-51.689-6.876c-35.188-2.937-87.92-16.639-87.92-16.639
				L1933.38,934.494z"/>
		</g>
		<path style="fill:#BCC0CF;" d="M2276.687,710.076c0,0-64.557,13.35-72.215,20.134c-8.316,7.222-22.981,77.927-23.858,97.621
			c-0.875,19.696,7.783,101.969,16.099,132.606c8.315,30.636,6.786,181.537,1.534,223.991c0,0,129.981,36.918,257.782,20.287
			c0,0-21.426-158.757-16.31-200.74c6.554-53.781,22.321-177.696,22.321-177.696s-11.314-86.314-22.693-95.942
			c-11.381-9.63-89.79-20.26-89.79-20.26H2276.687z"/>
		<path style="fill:#8E4F3A;" d="M2303.375,510.463c0,0-77.654-28.734-72.801,74.462c4.855,103.196,23.052,113.682,74.135,99.269
			c51.083-14.41,55.363-79.542,62.016-110.872C2373.376,541.991,2328.768,514.969,2303.375,510.463z"/>
		<path style="fill:#8E4F3A;" d="M2266.53,724.047c0,0,15.981,10.569,76.574-16.125c0,0-1.713-41.541,10.174-80.341
			c11.887-38.803-81.313,51.733-81.313,51.733c0.978,0.691,1.164,4.568,0.606,9.977c-0.472,4.587-1.477,10.268-2.99,16.035
			C2266.178,718.299,2266.53,712.724,2266.53,724.047z"/>
		<path style="fill:#2D3133;" d="M2355.931,624.502c0,0,0.22-27.566-11.243-30.103c-11.464-2.537-12.976-11.704-12.976-11.704
			l-6.577,1.525c0,0,1.204-4.854-9.725-11.258c-10.929-6.404-76.309-0.778-84.513-10.183c-8.206-9.405,3.693-65.265,21.53-70.748
			c17.838-5.483,59.276-4.979,97.131,5.654c0,0,28.741,7.249,30.917,41.082C2381.884,560.667,2365.259,609.556,2355.931,624.502z"/>
		<path style="fill:#633029;" d="M2269.582,705.327c60.19-10.118,69.186-44.349,69.321-44.883
			c-23.398,30.174-66.331,28.847-66.331,28.847C2272.1,693.878,2271.095,699.559,2269.582,705.327z"/>
		<path style="fill:#434343;" d="M2272.235,737.601c0,0-10.961,16.17-17.576,57.676c-6.617,41.505-5.495,113.009-5.495,113.009
			l15.242,1.854c0,0,23.069-145.829,19.1-171.237L2272.235,737.601z"/>
		<path style="fill:#8E4F3A;" d="M2331.713,582.695c3.43-9.094,22.798-7.948,20.814,6.469
			c-1.983,14.416-17.991,36.619-24.418,32.456C2321.681,617.457,2326.982,595.235,2331.713,582.695z"/>
		<path style="fill:#DBDFF0;" d="M2203.642,730.141c0,0-36.678,48.528-23.089,175.499c24.555,229.44-39.75,597.752-39.75,597.752
			l66.34,20.761c0,0,63.394-470.833,47.251-641.708c-7.357-77.871-29.191-103.78,5.254-168.652
			C2259.647,713.793,2226.104,715.491,2203.642,730.141z"/>
		<path style="fill:#DBDFF0;" d="M2367.392,712.724c0,0-105.002,106.066-113.226,186.474
			c-8.222,80.407-21.618,624.956-21.618,624.956l249.983-14.557c0,0-22.977-287.456-28.584-323.416
			c-5.607-35.96-17.209-242.429,8.094-338.237c13.593-51.469-2.579-116.769-33.634-123.897
			C2397.354,716.921,2367.392,712.724,2367.392,712.724z"/>
		<path style="fill:#DBDFF0;" d="M2402.88,726.466c0,0-40.44,11.135-18.191,85.359c17.427,58.136,19.781,70.62,19.781,70.62
			l93.315-23.309c0,0-27.361-127.701-72.01-134.565C2425.774,724.572,2411.558,722.546,2402.88,726.466z"/>
		<polygon style="fill:#616161;" points="2096.971,1119.305 2279.877,1308.589 2401.364,1191.193 2223.206,997.322 		"/>
		<polygon style="fill:#E0CEC7;" points="2114.261,1123.07 2276.706,1291.176 2384.604,1186.915 2226.374,1014.734 		"/>
		<polygon style="fill:#616161;" points="2151.694,1094.978 2140.292,1083.179 2183.912,1041.027 2197.019,1051.181 		"/>
		<path style="fill:#A7AAB8;" d="M2343.083,696.439c0,0-31.675,19.106-63.018,23.41l16.674,26.597l52.82-36.371L2343.083,696.439z"
			/>
		<path style="fill:#A7AAB8;" d="M2269.582,705.327c0,0,3.339,10.95,10.483,14.522l-15.658,21.833l0.573-28.958L2269.582,705.327z"
			/>
		<path style="fill:#434343;" d="M2280.065,719.849l-12.4,17.288c0,0,7.845,9.925,24.745,2.405L2280.065,719.849z"/>
		<path style="fill:#A7AAB8;" d="M2162.762,915.533v0.017c5.701-7.384,11.291-15.133,16.61-22.804
			c0.017-0.017,0.017-0.032,0.017-0.032s-2.001-55.943-0.253-72.015C2179.135,820.699,2160.856,880.964,2162.762,915.533z"/>
		<path style="fill:#A7AAB8;" d="M2420.438,878.456c0,0,12.193,79.339,11.338,84.425
			C2430.923,967.968,2486.971,946.946,2420.438,878.456z"/>
		
			<rect x="2200.224" y="850.061" transform="matrix(-1 -1.224647e-16 1.224647e-16 -1 4429.9175 1745.1147)" style="fill:#C6CAD9;" width="29.469" height="44.993"/>
		<path style="fill:#8E4F3A;" d="M2331.211,1065.765c0,0-2.697,5.337-7.179,7.137c-7.74,3.108-20.12-1.821-24.911,9.255
			c-4.79,11.079,26.088,37.097,33.83,38.448c7.742,1.353,18.704-11.315,25.853-35.748
			C2365.952,1060.427,2331.211,1065.765,2331.211,1065.765z"/>
		<path style="fill:#8E4F3A;" d="M2301.273,1078.679c0,0-13.296,11.882-26.437,26.993c-11.526,13.256-22.625,31.063-20.64,34.422
			c4.412,7.469,15.133-9.212,27.46-21.55c11.349-11.361,9.472-9.372,9.472-9.372s0.018-1.211-9.89,13.684
			c-10.655,16.011-19.935,33.57-17.415,37.472c1.227,1.897,6.189,6.541,8.565-1.114c-2.129,3.58-2.506,2.7-1.081,3.787
			c7.365,5.621,26.728-15.326,34.415-23.645c-5.865,6.43-9.467,11.807-2.823,12.351c7.602,0.625,33.616-30.283,44.016-40.414
			C2358.257,1100.244,2301.273,1078.679,2301.273,1078.679z"/>
		<path style="fill:#DBDFF0;" d="M2398.045,731.436c-8.465,3.278-11.669,18.304-8.19,61.852
			c3.478,43.547,18.809,63.58,24.528,73.653c5.719,10.072,37.176,72.165,31.522,80.333c-5.654,8.169-59.058,60.857-62.149,65.147
			c-3.09,4.291-62.716,58.263-62.716,58.263l30.357,42.421c0,0,128.752-100.57,138.797-110.609
			c10.046-10.04,40.072-31.137,28.966-66.211c-11.287-35.651-31.573-119.107-35.176-125.633
			C2480.378,804.129,2454.016,709.765,2398.045,731.436z"/>
	</g>
	<defs>
		<filter id="Adobe_OpacityMaskFilter" filterUnits="userSpaceOnUse" x="2329.4" y="97.337" width="123.594" height="60.074">
			<feFlood  style="flood-color:white;flood-opacity:1" result="back"/>
			<feBlend  in="SourceGraphic" in2="back" mode="normal"/>
		</filter>
	</defs>
	<mask maskUnits="userSpaceOnUse" x="2329.4" y="97.337" width="123.594" height="60.074" id="SVGID_12_">
		<g style="filter:url(#Adobe_OpacityMaskFilter);">
			<defs>
				<filter id="Adobe_OpacityMaskFilter_1_" filterUnits="userSpaceOnUse" x="2329.4" y="97.337" width="123.594" height="60.074">
					<feFlood  style="flood-color:white;flood-opacity:1" result="back"/>
					<feBlend  in="SourceGraphic" in2="back" mode="normal"/>
				</filter>
			</defs>
			<mask maskUnits="userSpaceOnUse" x="2329.4" y="97.337" width="123.594" height="60.074" id="SVGID_12_">
				<g style="filter:url(#Adobe_OpacityMaskFilter_1_);">
				</g>
			</mask>
			<linearGradient id="SVGID_13_" gradientUnits="userSpaceOnUse" x1="2385.116" y1="-166.5466" x2="2395.5254" y2="336.5623">
				<stop  offset="0" style="stop-color:#FFFFFF"/>
				<stop  offset="1" style="stop-color:#000000"/>
			</linearGradient>
			<polygon style="mask:url(#SVGID_12_);fill:url(#SVGID_13_);" points="2358.365,157.411 2452.994,157.411 2424.03,97.337 
				2329.4,97.337 			"/>
		</g>
	</mask>
	<linearGradient id="SVGID_14_" gradientUnits="userSpaceOnUse" x1="2385.116" y1="-166.5466" x2="2395.5254" y2="336.5623">
		<stop  offset="0" style="stop-color:#40D5E6"/>
		<stop  offset="1" style="stop-color:#5577FF"/>
	</linearGradient>
	<polygon style="fill:url(#SVGID_14_);" points="2358.365,157.411 2452.994,157.411 2424.03,97.337 2329.4,97.337 	"/>
	<defs>
		<filter id="Adobe_OpacityMaskFilter_2_" filterUnits="userSpaceOnUse" x="2285.121" y="97.337" width="51.513" height="60.074">
			<feFlood  style="flood-color:white;flood-opacity:1" result="back"/>
			<feBlend  in="SourceGraphic" in2="back" mode="normal"/>
		</filter>
	</defs>
	<mask maskUnits="userSpaceOnUse" x="2285.121" y="97.337" width="51.513" height="60.074" id="SVGID_15_">
		<g style="filter:url(#Adobe_OpacityMaskFilter_2_);">
			<defs>
				<filter id="Adobe_OpacityMaskFilter_3_" filterUnits="userSpaceOnUse" x="2285.121" y="97.337" width="51.513" height="60.074">
					<feFlood  style="flood-color:white;flood-opacity:1" result="back"/>
					<feBlend  in="SourceGraphic" in2="back" mode="normal"/>
				</filter>
			</defs>
			<mask maskUnits="userSpaceOnUse" x="2285.121" y="97.337" width="51.513" height="60.074" id="SVGID_15_">
				<g style="filter:url(#Adobe_OpacityMaskFilter_3_);">
				</g>
			</mask>
			<linearGradient id="SVGID_16_" gradientUnits="userSpaceOnUse" x1="2304.8308" y1="-164.8853" x2="2315.2402" y2="338.2229">
				<stop  offset="0" style="stop-color:#FFFFFF"/>
				<stop  offset="1" style="stop-color:#000000"/>
			</linearGradient>
			<polygon style="mask:url(#SVGID_15_);fill:url(#SVGID_16_);" points="2314.085,157.411 2336.634,157.411 2307.67,97.337 
				2285.121,97.337 			"/>
		</g>
	</mask>
	<linearGradient id="SVGID_17_" gradientUnits="userSpaceOnUse" x1="2304.8308" y1="-164.8853" x2="2315.2402" y2="338.2229">
		<stop  offset="0" style="stop-color:#40D5E6"/>
		<stop  offset="1" style="stop-color:#5577FF"/>
	</linearGradient>
	<polygon style="fill:url(#SVGID_17_);" points="2314.085,157.411 2336.634,157.411 2307.67,97.337 2285.121,97.337 	"/>
</g>
</svg>
