<svg xmlns="http://www.w3.org/2000/svg" width="825.13" height="509.362" viewBox="0 0 825.13 509.362"><defs><style>.a{isolation:isolate;}.b{fill:#e3eaff;}.c{fill:#cfdaff;}.d{fill:#b1c1f2;}.e{fill:#2c2858;}.f{fill:#f37a50;}.g{fill:#de623c;}.h{fill:#f595ad;}.i{fill:#fff;}.j{fill:#4364cc;}.k{fill:#070635;}.l{fill:#e62552;}.m{fill:#c4204a;}.n{fill:#494c7f;}.o{fill:#16142b;}.p{fill:#191e29;}.q{fill:#0e6a41;}.r{fill:#3c3f73;}.s{fill:#768fdb;}.t{fill:#80bc48;}.u{fill:#3f964f;}.v{fill:#201d40;}.w{fill:#30357f;}.x{fill:#181b47;}.y{fill:#47a859;}.z{fill:#f3906d;}.aa{fill:#f0f4ff;}</style></defs><g class="a" transform="translate(-44.644 -50.874)"><g transform="translate(44.644 50.874)"><path class="b" d="M81.524,526.641C58.01,480.843,24.259,425.509,60.7,380.688c13.981-17.2,47.02-46.822,51.091-68.608,10.422-55.772-29.2-110.941,27.735-151.814,54-38.771,94.884,8.759,151.814-40.873C345.741,71.969,431.4,36.511,517.6,56.625c43.793,10.218,83.542,75.907,121.159,75.907,154.734,0,123.759,118.732,185.388,156.193,74.447,45.252,42.333,166.411,11.781,236.87C835.928,525.6,81.524,526.641,81.524,526.641Z" transform="translate(-44.644 -50.874)"/><g transform="translate(216.567 70.222)"><g transform="translate(14.069 59.222)"><path class="c" d="M901.153,660.114a.653.653,0,0,1-.639-.785c3.021-14.514-2.013-25.628-6.88-36.376-2.479-5.475-5.043-11.136-6.409-17.068a37.8,37.8,0,0,1,.486-19.469q.356-1.23.74-2.539c3.2-10.917,7.571-25.869,5.084-35.631-2.731-10.721-3.806-19.033-.178-24.756a.652.652,0,0,1,1.1.7c-3.379,5.329-2.308,13.343.34,23.736,2.575,10.108-1.859,25.257-5.1,36.319q-.382,1.3-.739,2.536c-4.009,13.849.784,24.432,5.858,35.637,4.954,10.938,10.076,22.249,6.969,37.179A.652.652,0,0,1,901.153,660.114Z" transform="translate(-886.183 -523.187)"/></g><path class="c" d="M905.527,508.379l-2.409,5.541a.619.619,0,0,0,.474.9h3.858a.619.619,0,0,0,.475-.9Z" transform="translate(-884.365 -453.215)"/><ellipse class="c" cx="21.671" cy="28.736" rx="21.671" ry="28.736"/></g><g transform="translate(592.271 58.434)"><g transform="translate(14.068 59.223)"><path class="c" d="M2272.007,617.1a.679.679,0,0,1-.133-.014.652.652,0,0,1-.506-.771c3.021-14.514-2.013-25.628-6.88-36.376-2.479-5.475-5.043-11.136-6.409-17.067a37.793,37.793,0,0,1,.486-19.469q.355-1.231.74-2.539c3.2-10.918,7.571-25.869,5.083-35.631-2.731-10.72-3.806-19.033-.177-24.756a.652.652,0,0,1,1.1.7c-3.379,5.329-2.308,13.343.34,23.736,2.575,10.108-1.858,25.258-5.1,36.319q-.381,1.3-.739,2.536c-4.009,13.849.784,24.432,5.858,35.637,4.953,10.938,10.076,22.249,6.969,37.179A.653.653,0,0,1,2272.007,617.1Z" transform="translate(-2257.037 -480.177)"/></g><path class="c" d="M2276.385,465.366l-2.409,5.541a.619.619,0,0,0,.474.9h3.858a.619.619,0,0,0,.474-.9Z" transform="translate(-2255.224 -410.202)"/><ellipse class="c" cx="21.671" cy="28.736" rx="21.671" ry="28.736"/></g><g transform="translate(286.801 111.716)"><g transform="translate(14.071 59.222)"><path class="c" d="M1157.427,811.512a.654.654,0,0,1-.639-.785c3.021-14.514-2.013-25.628-6.88-36.376-2.479-5.475-5.043-11.136-6.409-17.067a37.8,37.8,0,0,1,.485-19.469q.356-1.23.74-2.539c3.2-10.917,7.571-25.869,5.084-35.631-2.731-10.72-3.806-19.033-.178-24.756a.652.652,0,0,1,1.1.7c-3.379,5.329-2.308,13.343.34,23.736,2.575,10.108-1.858,25.257-5.1,36.319q-.382,1.3-.739,2.536c-4.009,13.849.784,24.432,5.859,35.637,4.953,10.938,10.076,22.249,6.969,37.179A.652.652,0,0,1,1157.427,811.512Z" transform="translate(-1142.457 -674.585)"/></g><path class="c" d="M1161.794,659.779l-2.409,5.541a.62.62,0,0,0,.474.9h3.858a.62.62,0,0,0,.475-.9Z" transform="translate(-1140.633 -604.615)"/><ellipse class="c" cx="21.671" cy="28.736" rx="21.671" ry="28.736"/></g><g transform="translate(403.097 13.641)"><g transform="translate(14.069 59.223)"><path class="c" d="M1581.758,453.665a.675.675,0,0,1-.133-.014.652.652,0,0,1-.5-.771c3.02-14.514-2.013-25.628-6.88-36.376-2.479-5.475-5.043-11.136-6.409-17.067a37.8,37.8,0,0,1,.486-19.469q.355-1.231.74-2.539c3.2-10.917,7.571-25.869,5.084-35.631-2.731-10.721-3.807-19.033-.177-24.756a.651.651,0,1,1,1.1.7c-3.379,5.329-2.307,13.343.34,23.736,2.575,10.108-1.859,25.258-5.1,36.319q-.382,1.3-.74,2.536c-4.009,13.848.784,24.432,5.859,35.637,4.953,10.938,10.076,22.249,6.969,37.179A.653.653,0,0,1,1581.758,453.665Z" transform="translate(-1566.788 -316.738)"/></g><path class="c" d="M1586.134,301.928l-2.41,5.541a.619.619,0,0,0,.474.9h3.858a.619.619,0,0,0,.475-.9Z" transform="translate(-1564.972 -246.764)"/><ellipse class="c" cx="21.672" cy="28.736" rx="21.672" ry="28.736"/></g><g transform="translate(768.735 211.672)"><g transform="translate(14.071 59.222)"><path class="c" d="M2915.9,1176.232a.661.661,0,0,1-.134-.014.652.652,0,0,1-.5-.771c3.02-14.514-2.013-25.628-6.88-36.376-2.48-5.475-5.043-11.137-6.408-17.067a37.8,37.8,0,0,1,.485-19.469q.357-1.231.74-2.54c3.2-10.917,7.571-25.869,5.084-35.631-2.731-10.721-3.807-19.033-.178-24.756a.652.652,0,1,1,1.1.7c-3.379,5.329-2.308,13.343.34,23.736,2.574,10.107-1.859,25.257-5.1,36.319q-.382,1.3-.74,2.536c-4.009,13.849.784,24.432,5.859,35.637,4.953,10.938,10.076,22.249,6.969,37.178A.652.652,0,0,1,2915.9,1176.232Z" transform="translate(-2900.927 -1039.306)"/></g><path class="c" d="M2920.264,1024.5l-2.41,5.541a.62.62,0,0,0,.474.9h3.858a.619.619,0,0,0,.475-.9Z" transform="translate(-2899.103 -969.336)"/><ellipse class="c" cx="21.671" cy="28.736" rx="21.671" ry="28.736"/></g><g transform="translate(13.209 267.778)"><g transform="translate(14.069 59.223)"><path class="c" d="M159.147,1380.954a.642.642,0,0,1-.133-.014.652.652,0,0,1-.505-.771c3.02-14.513-2.013-25.628-6.88-36.376-2.479-5.475-5.043-11.136-6.409-17.068a37.8,37.8,0,0,1,.486-19.469q.356-1.23.741-2.539c3.2-10.918,7.571-25.87,5.084-35.632-2.731-10.72-3.806-19.033-.178-24.756a.652.652,0,0,1,1.1.7c-3.379,5.329-2.308,13.343.34,23.736,2.575,10.108-1.858,25.257-5.1,36.319q-.382,1.3-.739,2.536c-4.009,13.849.784,24.432,5.858,35.637,4.953,10.938,10.076,22.249,6.969,37.179A.652.652,0,0,1,159.147,1380.954Z" transform="translate(-144.177 -1244.027)"/></g><path class="c" d="M163.522,1229.22l-2.41,5.541a.619.619,0,0,0,.474.9h3.858a.619.619,0,0,0,.475-.9Z" transform="translate(-142.359 -1174.055)"/><ellipse class="c" cx="21.671" cy="28.737" rx="21.671" ry="28.737"/></g><ellipse class="d" cx="392.672" cy="32.844" rx="392.672" ry="32.844" transform="translate(17.52 443.673)"/><path class="c" d="M1007.043,1221.9l-6.88-2.011-5.031,5.105a.793.793,0,0,1-1.357-.533l-.213-7.165-6.41-3.207a.792.792,0,0,1,.087-1.455l6.748-2.417,1.069-7.088a.793.793,0,0,1,1.411-.366l4.384,5.671,7.071-1.173a.793.793,0,0,1,.785,1.228l-4.039,5.922,3.3,6.362A.793.793,0,0,1,1007.043,1221.9Z" transform="translate(-728.526 -886.845)"/><path class="c" d="M307.487,538.042l-6.716-2.5-5.386,4.729a.793.793,0,0,1-1.315-.63l.3-7.161-6.162-3.661a.793.793,0,0,1,.192-1.445l6.9-1.923,1.578-6.992a.793.793,0,0,1,1.434-.264l3.963,5.973,7.137-.66a.793.793,0,0,1,.694,1.282l-4.456,5.614,2.833,6.584A.793.793,0,0,1,307.487,538.042Z" transform="translate(-221.177 -389.859)"/><path class="c" d="M1751.12,1504.674l-5.019-5.118-6.885,1.995a.793.793,0,0,1-.923-1.128l3.316-6.354-4.024-5.932a.792.792,0,0,1,.787-1.227l7.068,1.19,4.4-5.661a.793.793,0,0,1,1.411.37l1.052,7.09,6.743,2.433a.793.793,0,0,1,.084,1.456l-6.418,3.192-.23,7.164A.792.792,0,0,1,1751.12,1504.674Z" transform="translate(-1273.508 -1089.875)"/><path class="c" d="M2625.31,540.1l-5.019-5.117-6.885,1.995a.793.793,0,0,1-.923-1.128l3.317-6.354-4.025-5.931a.792.792,0,0,1,.788-1.226l7.068,1.19,4.4-5.66a.793.793,0,0,1,1.41.37l1.052,7.09,6.742,2.433a.793.793,0,0,1,.084,1.456l-6.417,3.192-.231,7.164A.793.793,0,0,1,2625.31,540.1Z" transform="translate(-1908.114 -389.66)"/><path class="c" d="M1835.187,394.3l-7.095-1.021-4.26,5.764a.793.793,0,0,1-1.418-.336l-1.222-7.063-6.8-2.271a.793.793,0,0,1-.119-1.453l6.34-3.345.058-7.167a.793.793,0,0,1,1.345-.562l5.139,5,6.835-2.159a.793.793,0,0,1,.95,1.106l-3.163,6.432,4.166,5.833A.792.792,0,0,1,1835.187,394.3Z" transform="translate(-1328.974 -287.347)"/><path class="c" d="M1794.129,275.543l-4.6-.662-2.761,3.735a.514.514,0,0,1-.919-.218l-.792-4.577-4.405-1.471a.514.514,0,0,1-.077-.942l4.108-2.167.038-4.645a.514.514,0,0,1,.872-.364l3.331,3.238,4.429-1.4a.513.513,0,0,1,.615.716l-2.05,4.168,2.7,3.78A.513.513,0,0,1,1794.129,275.543Z" transform="translate(-1304.62 -205.653)"/><path class="c" d="M1882.247,1325.447l-3.055-3.5-4.528,1.032a.514.514,0,0,1-.555-.765l2.384-3.986-2.381-3.988a.514.514,0,0,1,.555-.764l4.528,1.035,3.057-3.5a.513.513,0,0,1,.9.292l.415,4.627,4.271,1.827a.514.514,0,0,1,0,.945l-4.272,1.823-.418,4.626A.514.514,0,0,1,1882.247,1325.447Z" transform="translate(-1372.663 -965.527)"/><path class="c" d="M2696.586,1428.064l-7.1-1.021-4.26,5.764a.793.793,0,0,1-1.419-.336l-1.222-7.063-6.8-2.271a.793.793,0,0,1-.119-1.453l6.34-3.344.059-7.167a.793.793,0,0,1,1.345-.562l5.14,5,6.835-2.159a.793.793,0,0,1,.95,1.105l-3.163,6.432,4.165,5.834A.793.793,0,0,1,2696.586,1428.064Z" transform="translate(-1954.294 -1037.792)"/></g><g transform="translate(668.818 214.804)"><g transform="translate(39.389 4.145)"><path class="e" d="M2485.747,733.414c-8.357-2.911-26.114-11.877-17.7-23.967s11.987-7.025,8.751-21.562,7-26.115,16.909-23.322,12.518,10.758,24.6,8.6,22.273,9.058,17.823,18.927-6.344,14.619-2.023,20.008,23.587,11.033,15.722,24.143-11.545,12.351-8.69,19-3.478,14.315-14.621,13.4-21.267-5.014-25.486-17.4S2485.747,733.414,2485.747,733.414Z" transform="translate(-2465.838 -664.145)"/><path class="f" d="M2578.579,1690.07l.691,7.1-5.942,1.8-4.771-5.095-.787-2.93Z" transform="translate(-2539.834 -1408.9)"/><path class="f" d="M2520.47,1167.39s-8.917,57.735-6.512,82.478,14.5,61.76,14.5,61.76h10.852s-.184-4.478-.608-19.229c-.541-18.813,0-34.261-8.217-43.964,4.256-18.355,15.142-81.045,15.142-81.045H2520.47Z" transform="translate(-2500.471 -1029.468)"/><path class="f" d="M2579.01,1203.4s2.883,53.143,11.645,76.408c22.443,15.3,42.847,22.713,56.427,28.055.639.252,3.336-9.851,3.336-9.851-15.08-9.865-28.318-27.647-43.705-25.36,2.631-17.018,5.18-60.757,5.18-60.757Z" transform="translate(-2547.994 -1055.609)"/><path class="g" d="M2586.958,858.727V880.56s-7.278,3.882-13.584,0c.971-4.852,1.546-20.308,1.546-20.308Z" transform="translate(-2543.902 -805.399)"/><path class="h" d="M2559.4,901.705h-36.222s-6.5,14.6-5.621,27.1,2.471,46.52,2.471,46.52,22.217-5.042,36.4-9.418c1.129-25.654,8.746-37.35,8.22-45.684S2559.4,901.705,2559.4,901.705Z" transform="translate(-2503.324 -836.598)"/><g transform="translate(18.372 8.485)"><path class="f" d="M2539.35,730.331c0,12.232,7.377,22.148,16.476,22.148s16.475-9.916,16.475-22.148-7.376-22.147-16.475-22.147S2539.35,718.1,2539.35,730.331Z" transform="translate(-2537.575 -704.599)"/><path class="e" d="M2568.7,720.836c-9.1-1.163-17.552-6.231-22.328-12.78-3.086,7.655-11.72,12.78-11.72,12.78s-6.47-14.642,5.3-22.541C2551.172,690.759,2577.957,695.908,2568.7,720.836Z" transform="translate(-2532.874 -695.103)"/><path d="M2620.122,796.962a1.751,1.751,0,1,0-1.751-1.751A1.751,1.751,0,0,0,2620.122,796.962Z" transform="translate(-2594.939 -766.504)"/><path d="M2569.2,796.962a1.751,1.751,0,1,0-1.751-1.751A1.751,1.751,0,0,0,2569.2,796.962Z" transform="translate(-2557.975 -766.504)"/><g transform="translate(7.301 23.69)"><path class="e" d="M2560.355,784.984a.841.841,0,0,0,.724-.412,2.51,2.51,0,0,1,1.557-1.3,3.037,3.037,0,0,1,2.076.47.841.841,0,0,0,.961-1.38,4.73,4.73,0,0,0-3.382-.736,4.1,4.1,0,0,0-2.659,2.088.841.841,0,0,0,.722,1.27Z" transform="translate(-2559.515 -781.544)"/></g><g transform="translate(22.355 23.605)"><path class="e" d="M2620.592,784.842a.841.841,0,0,0,.656-1.367,5.266,5.266,0,0,0-3.636-2.232,4.1,4.1,0,0,0-2.9.954.841.841,0,0,0,1.129,1.246,2.423,2.423,0,0,1,1.657-.522,3.718,3.718,0,0,1,2.432,1.605A.839.839,0,0,0,2620.592,784.842Z" transform="translate(-2614.443 -781.232)"/></g><path class="g" d="M2582.945,808.238c-2.265,1.633-2.971,2.3-3.845,2.847.6,2.022,3.775,3.026,4.677,2.793a4.3,4.3,0,0,1-2.52-2.564Z" transform="translate(-2566.431 -777.232)"/><path class="f" d="M2646.681,788.652c-1.888,2.391-1.981,5.464-.21,6.863s4.74.6,6.627-1.8,1.982-5.464.21-6.863S2648.569,786.261,2646.681,788.652Z" transform="translate(-2614.416 -761.211)"/><g transform="translate(33.013 27.348)"><path class="g" d="M2654.24,800.148a.551.551,0,0,0,.218-.044.56.56,0,0,0,.3-.734,2.313,2.313,0,0,1-.027-2.267,3.629,3.629,0,0,1,3-1.09.561.561,0,1,0,.037-1.121,4.656,4.656,0,0,0-3.957,1.575,3.323,3.323,0,0,0-.082,3.338A.559.559,0,0,0,2654.24,800.148Z" transform="translate(-2653.33 -794.889)"/></g><path class="i" d="M2587.261,837.664a.51.51,0,0,0-.539-.768,36.2,36.2,0,0,1-9.567.854.51.51,0,0,0-.394.851,6.365,6.365,0,0,0,10.5-.937Z" transform="translate(-2564.638 -798.027)"/></g><g transform="translate(8.018 284.982)"><path class="j" d="M2520.427,1708.286a6.356,6.356,0,0,0-4.63-4.306c-6.132,8.179-21.189,3.16-20.691,14.223,22.9-.142,32.415,0,32.415,0a78.647,78.647,0,0,0-1.011-10.933l-1.193.213Z" transform="translate(-2495.093 -1703.98)"/></g><g transform="translate(98.71 241.704)"><path class="f" d="M2828.668,1546.07l8.093,4.122-1.143,5.917-6.534,1.79-3.075-1.428Z" transform="translate(-2826.01 -1546.07)"/><path class="j" d="M2839.632,1566.788a6.169,6.169,0,0,0-5.793,2.026c4.245,8.969-6.885,19.625,2.84,24.206,10.249-19.724,14.681-27.832,14.681-27.832a76.215,76.215,0,0,0-9.844-4.083l-.359,1.12Z" transform="translate(-2830.766 -1556.984)"/></g><g transform="translate(0.661 126.478)"><path class="k" d="M2522.747,1200.686a85.452,85.452,0,0,1,16.839-1.118c-2.377-7.953-1.69-57.049-16.758-73.933H2484.9c-13.424,23.035-8.36,57.167-16.655,71.148a75,75,0,0,0,24.222,6.69C2505.625,1204.8,2511.463,1202.728,2522.747,1200.686Z" transform="translate(-2468.248 -1125.635)"/></g><path class="l" d="M2624.01,897.277l16.039-1.414s1.936,20.123,9.584,69.852a92.508,92.508,0,0,1-18.331,2.839Z" transform="translate(-2580.661 -832.357)"/><path class="l" d="M2517.691,898.9l-7.1,71.257s-3.23,1.094-15.36-2.513c5.874-29.689,4.279-69.372,9.806-69.573C2510.458,898.479,2517.691,898.9,2517.691,898.9Z" transform="translate(-2487.179 -833.959)"/></g><g transform="translate(0 0.671)"><path class="l" d="M2417.856,891.719c-10.244-.945-30.635-11.592-38.922-19.682l9.887-9.277s26.509,7.181,32.986,10.63C2426.755,877.426,2427.511,889.776,2417.856,891.719Z" transform="translate(-2363.362 -804.852)"/><path class="g" d="M2324.571,658.867c3.119-4.058,4.871-1.246,6.49-.41,4.516,2.332,1.384-8.312,6.355-6.85-1.325,7.527,1.71,7.346-.578,14.607l.536,3.018-7.27,5.346-.812-3.331C2324.6,669.141,2319.537,665.221,2324.571,658.867Z" transform="translate(-2322.383 -651.469)"/><path class="f" d="M2323.178,673.6a7.613,7.613,0,0,1,3.551-4.008c.973-.44,3.923.619,4.412,1.749a2.125,2.125,0,0,1-.759,2.8,1.249,1.249,0,0,1-.766.1,2.263,2.263,0,0,1-.76,2.8l-.474.147a1.951,1.951,0,0,1-.931,2.022,1.432,1.432,0,0,1-.767.1c.172.778-.075,1.928-.719,2.2-.624.864-1.839.446-2.54-.277C2321.994,679.751,2321.492,677.746,2323.178,673.6Z" transform="translate(-2322.116 -664.549)"/><path class="l" d="M2353.7,713.237s8.822,29.443,11.4,40.634c1.024,4.444-7.618,8.931-11.129,9.622-3.794-3.727-11.186-15.549-9.04-45.836C2347.6,714.606,2353.7,713.237,2353.7,713.237Z" transform="translate(-2338.402 -696.309)"/></g><g transform="translate(92.982)"><path class="l" d="M2668.906,889.271c10.244-.945,30.635-11.591,38.921-19.682l-9.886-9.276s-26.51,7.181-32.987,10.63C2660.007,874.978,2659.25,887.328,2668.906,889.271Z" transform="translate(-2661.387 -802.404)"/><g transform="translate(35.227)"><path class="g" d="M2844.845,656.417c-3.118-4.058-4.871-1.246-6.49-.41-4.516,2.331-1.383-8.312-6.354-6.85,1.325,7.527-1.711,7.346.577,14.607l-.535,3.018,7.27,5.346.812-3.332C2844.813,666.692,2849.877,662.772,2844.845,656.417Z" transform="translate(-2820.246 -649.019)"/><path class="f" d="M2862.1,671.149a7.613,7.613,0,0,0-3.551-4.008c-.972-.44-3.922.619-4.412,1.749a2.127,2.127,0,0,0,.759,2.8,1.252,1.252,0,0,0,.767.1,2.263,2.263,0,0,0,.759,2.8l.474.147a1.951,1.951,0,0,0,.931,2.022,1.427,1.427,0,0,0,.766.1c-.172.778.075,1.928.72,2.2.624.864,1.839.446,2.54-.277C2863.286,677.3,2863.787,675.3,2862.1,671.149Z" transform="translate(-2836.379 -662.1)"/><path class="l" d="M2801.408,710.787s-8.822,29.443-11.4,40.634c-1.024,4.444,7.618,8.931,11.129,9.622,3.794-3.727,11.186-15.549,9.04-45.836C2807.514,712.156,2801.408,710.787,2801.408,710.787Z" transform="translate(-2789.923 -693.859)"/></g></g></g><g transform="translate(106.445 179.01)"><path class="k" d="M306.477,1729.186c7.132,9.84,24.646,3.8,24.067,17.111-26.634-.171-37.7,0-37.7,0,.035-3.057,2.206-14.458,2.821-17.3Z" transform="translate(-286.619 -1397.221)"/><path class="k" d="M604.807,1729.68c7.132,9.84,24.646,3.8,24.067,17.111-26.634-.171-37.7,0-37.7,0a123.729,123.729,0,0,1,1.324-14.809Z" transform="translate(-503.188 -1397.715)"/><path class="m" d="M568,864.534s21.66,12.06,32.377,22.342c-1.3,5.646,3.667,16.211,5.067,19.769-15.411,0-45.523-13.4-45.523-13.4Z" transform="translate(-480.5 -769.675)"/><path class="e" d="M472.338,1150.44l-35.968,18.9s29.34,55.352,46.2,72.491c2.935,2.984,19.753-1.657,20.963-5.231C507.946,1223.569,472.338,1150.44,472.338,1150.44Z" transform="translate(-390.813 -977.224)"/><path class="e" d="M576.225,1509.152l22.329-1.423c-.128-38.022,8.056-53.633,6.259-80.791-3.369-6.745-12.825-10.7-18.348-5.7C571.869,1431.83,575.65,1497.474,576.225,1509.152Z" transform="translate(-491.713 -1172.171)"/><path class="n" d="M403.394,1151.481l-44.071-13.609s-7.432,60.933-5.576,88.928c.277,4.176,22.145,7.5,23.9,4.163Z" transform="translate(-330.617 -968.101)"/><path class="n" d="M294.918,1509.287h19.258c10.654-32.908,20.983-71.746,20.983-71.746.757-6.086-3.409-12.892-7.862-14.519C299.239,1414.59,296.641,1500.662,294.918,1509.287Z" transform="translate(-288.128 -1174.68)"/><g transform="translate(35.802 28.372)"><path class="g" d="M454.861,783.39h.01l8.034.029,1.82,18.976-9.379,4.952-10-4.9V780.716Z" transform="translate(-433.13 -737.201)"/><path class="o" d="M424.193,669.056c-6.842,2.667-12.868-5.392-12.868-5.392-4.509.406-4.9-4.089-4.9-4.089a5.748,5.748,0,0,1-5.652-5.734c-.114-3.507,3.177-4.194,2.59-8.184-.471-3.2-4.684-10.256,5.1-13.422a8.208,8.208,0,0,1,4.358-8.783c6.882-3.592,9.832.339,13.246.3,3.813-.046,10.667-5.339,13.82,2.7,0,0,5.149-1.206,8.466,1.91a8.955,8.955,0,0,1,1.9,9.682s4.465.335,6.415,3.979a7.491,7.491,0,0,1-1.009,8.381,7.8,7.8,0,0,1-2.926,1.97c-1.605.708-.549,5.223-1.8,6.473a34.989,34.989,0,0,1-6.747,5.11Z" transform="translate(-400.775 -621.938)"/><path class="f" d="M433.677,687.641c1.761,13.192,13.254,23.582,23.615,22.2s15.666-14.015,13.9-27.207-11.587-22.765-21.948-21.382S431.916,674.449,433.677,687.641Z" transform="translate(-424.462 -650.38)"/><path d="M551.908,751.294a1.818,1.818,0,1,0,1.062-2.341A1.818,1.818,0,0,0,551.908,751.294Z" transform="translate(-510.403 -714.058)"/><path d="M500.763,753.458a1.968,1.968,0,1,0,1.149-2.535A1.968,1.968,0,0,0,500.763,753.458Z" transform="translate(-473.268 -715.481)"/><path class="g" d="M531.259,759.816c1.907,2.482,4.312,5.5,4.312,5.5a4.771,4.771,0,0,1-4.368,3.275c1.493-.794,2.93-1.99,2.095-4S531.259,759.816,531.259,759.816Z" transform="translate(-495.457 -722.028)"/><g transform="translate(24.119 31.889)"><path class="o" d="M489.3,741.7a.923.923,0,0,1-.181-.112.907.907,0,0,1-.146-1.274c.851-1.071,3.124-2.79,5.635-1.631a.907.907,0,1,1-.76,1.647c-1.86-.858-3.439,1.092-3.455,1.112A.908.908,0,0,1,489.3,741.7Z" transform="translate(-488.779 -738.292)"/></g><g transform="translate(40.685 31.295)"><path class="o" d="M549.794,738.438a.756.756,0,0,1-.352-1.263,3.727,3.727,0,0,1,2.666-1.042,3.874,3.874,0,0,1,2.809,1.741.756.756,0,0,1-1.205.913,2.459,2.459,0,0,0-1.7-1.145,2.185,2.185,0,0,0-1.491.594A.758.758,0,0,1,549.794,738.438Z" transform="translate(-549.225 -736.127)"/></g><path class="o" d="M459.072,657.4,435.4,645l-21.417,18.745,7.516,16.963c-1.444-8.349,4.242-6.975,6.23-10.025,2.015-3.092,2.2-7.172,9.231-5.383,0,0,4.146-4.722,7.951-.5,2.942,3.262,5.464,1.857,8.209,1.374,3.237-.569,3.26,2.709,5.176,2.119Z" transform="translate(-410.362 -638.68)"/><g transform="translate(3.642 34.143)"><path class="f" d="M422.462,748.306c2.269,2.156,2.678,5.408.915,7.265s-5.033,1.615-7.3-.541-2.678-5.408-.914-7.265S420.193,746.151,422.462,748.306Z" transform="translate(-414.064 -746.517)"/><g transform="translate(3.217 2.587)"><path class="g" d="M428.938,761.54a.681.681,0,0,0,.26-.176,3.1,3.1,0,0,0,.611-3.751,3.3,3.3,0,0,0-3.473-1.589.684.684,0,0,0,.3,1.335,1.952,1.952,0,0,1,1.989.939,1.752,1.752,0,0,1-.434,2.14.684.684,0,0,0,.748,1.1Z" transform="translate(-425.801 -755.955)"/></g></g><path class="i" d="M503.81,799.086a.571.571,0,0,1,.6-.866,40.507,40.507,0,0,0,10.724.856.571.571,0,0,1,.45.949,7.129,7.129,0,0,1-11.769-.939Z" transform="translate(-475.507 -749.899)"/></g><g transform="translate(25.079 91.936)"><path class="l" d="M361.65,946.549a308.936,308.936,0,0,0,31.006,1.964,131.315,131.315,0,0,0,29.89-3.984s2.123-30.087,2.339-41.2c.307-12.759-.818-29.677-.818-46.539,0,0-11.175-1.8-17.48-2.576-1.025-.127-1.92-.225-2.62-.286,0,0-3.592,7.535-19.242,0a19.712,19.712,0,0,0-2.979-.012c-6.575.393-17.164,2.874-17.164,2.874,0,16.816-.679,33.3-.452,46.058C363.431,914.231,361.65,946.549,361.65,946.549Z" transform="translate(-361.65 -853.867)"/></g><path class="m" d="M434.979,853.916v0a11.158,11.158,0,0,0,4.8,4.285,23.453,23.453,0,0,0,10.993,2.246,12.623,12.623,0,0,0,6.426-2.393,7.463,7.463,0,0,0,2.62-3.844c-1.025-.127-2.077-.286-2.777-.347,0,0-3.435,7.6-19.085.061A19.733,19.733,0,0,0,434.979,853.916Z" transform="translate(-389.803 -761.93)"/><g transform="translate(51.855)"><path class="m" d="M698.727,878.753s13.065-15.317,37.3-25.409c2.316,3.613,6.61,10.031,6.61,10.031s-23.936,28.833-37.033,35.147C704.569,899.021,695.09,891.987,698.727,878.753Z" transform="translate(-632.521 -761.552)"/><path class="n" d="M666.844,617.722c-1.441-5.941-6.016-17.371-8.792-22.818-9.07-17.8-29.317-38.382-45.3-49.132-11.962-8.048-28.167-19.08-28.167-19.08-3.022-6.306-.512-8.277-.512-8.277-6.872,3.371-4.039,5.98-.6,9.14l-.069.057,5.875,4.622c9.254,7.338,54.318,44.883,61.962,65.26,2.148,5.726,7.218,16.93,8.7,22.862,6.715,26.856-5.121,94.907-5.046,97.47.138,4.671,2.713,8.928,6.824,6.989,0,0-2.623-.691-4.558-7.411,0,0,6-32.315,8-43.089C670.094,647.671,670.18,631.478,666.844,617.722Z" transform="translate(-546.836 -518.414)"/><path class="i" d="M575.554,546.486l-.927,1.5-6.859,109.763,79.159,83.789,3.791-1.442-2.342-2.277-2.5.951-76.747-81.538,6.455-108.463,1.3-.966Z" transform="translate(-538.054 -538.792)"/><g transform="translate(0 63.629)"><path class="e" d="M631.76,754.731,476.877,819.8l-.562-1.352L631.2,753.38Z" transform="translate(-471.665 -752.613)"/><path class="p" d="M464,961.451l-4.65-3.241,18.849-7.838,6.988,2.268Z" transform="translate(-459.348 -895.618)"/><path class="p" d="M475.767,972.391l-.982,5.583,18.849-7.839,3.32-6.555Z" transform="translate(-470.554 -905.206)"/><path class="n" d="M1020.789,750.583l-12.969,2,3.061,1.323.562,1.351-.365,2.972Z" transform="translate(-857.503 -750.583)"/></g><g transform="translate(112.457 83.293)"><path class="f" d="M871.384,831.424c-.384,1.288.733,3.028,2.411,3.731.067-.058.126.026.126.026-.133.116-.141.259-.214.46a2.878,2.878,0,0,0,1.753,2.949c1.183.458,2.411.062,2.662-1.11a2.729,2.729,0,0,0-1.132-2.678,1.694,1.694,0,0,0,.488-.835,3.213,3.213,0,0,0-1.184-2.9l.222-.6a3.647,3.647,0,0,0-2.042-3.512,1.488,1.488,0,0,0,.488-.836,3.4,3.4,0,0,0-2.042-3.512,2.141,2.141,0,0,0-3.18,1.292,3.174,3.174,0,0,0,1.236,3.131,1.754,1.754,0,0,0-.554.894,3.212,3.212,0,0,0,1.184,2.9Z" transform="translate(-869.677 -822.332)"/></g><path class="g" d="M843.863,823.766c.469-3.393-1.376-5.244,1.356-6.682s.63-3.253-2.552-2.137c-2.918,1.024-2.687,4.507-2.537,7.456-1.067,1.024-1.294,3.564-1.294,3.564l5.5,8.352L847.4,833.1S845.391,826.123,843.863,823.766Z" transform="translate(-734.833 -733.426)"/><path class="e" d="M841.762,832.325l4.445-1.867.131,1.532-4.374,1.837Z" transform="translate(-736.956 -744.938)"/></g><g transform="translate(0 94.859)"><g transform="translate(64.774 18.224)"><g transform="translate(6.409)"><path class="f" d="M532.844,951.424c-1.538-3.541-2.969-3.9-2.969-8.958,0-2.329,1.387-4.619,2.685-6.436,1.841-2.576,5.954-2.409,7.318-1.587,1.775,1.07,2.363,1.926.867,2.289-1.541.374-3.922-.347-3.069.8.322.434.587,1.277,3.678.314,3.428-1.442,4.55-7.392,6.3-6.772,1.365.484.868,4.493-2.715,8.277.924-.491,2.516-.72,2.778.889.123.753-.579,1.477-2,2.182,1.856-.285,2.387-.486,2.825.68.316,1.4-.111,1.831-1.008,2.188,1.036-.208,1.49-.568,1.729.482.385,1.688-2.207,3.2-7.324,4.776C540.477,951,532.844,951.424,532.844,951.424Z" transform="translate(-529.875 -931.031)"/></g><path class="f" d="M511.087,983.295l6.26-5.155-3.728-8.729-7.13,5.625Z" transform="translate(-506.489 -958.892)"/></g><path class="m" d="M292.861,908.83c14.377-4.441,43.877-12.344,43.877-12.344a46.037,46.037,0,0,1,5.26,9.586c-14.15,15.955-53.858,29.473-67.161,23.465-11.4-5.149-1.429-56.076,23.318-65l.727.068C306.066,876.759,292.861,908.83,292.861,908.83Z" transform="translate(-270.142 -864.534)"/></g></g><g transform="translate(341.518 184.391)"><g transform="translate(0 34.889)"><path class="q" d="M1424.08,814.36l47.408-23.506v19.39l-37.665,27.539Z" transform="translate(-1342.9 -756.458)"/><path class="r" d="M1261.79,1686.06c7.533,10.393,26.032,4.016,25.419,18.073-28.131-.181-39.822,0-39.822,0a103.113,103.113,0,0,1,1.242-13.892Z" transform="translate(-1214.632 -1406.319)"/><path class="r" d="M1574.1,1688.74c7.532,10.393,26.031,4.016,25.419,18.074-28.131-.181-39.822,0-39.822,0a103.029,103.029,0,0,1,1.242-13.892Z" transform="translate(-1441.347 -1408.265)"/><path class="j" d="M1395.824,1121.05l-31.466,13.677s22.958,57.788,35.771,74.579c2.23,2.923,19.483-2.061,19.057-5.656C1417.072,1185.88,1395.824,1121.05,1395.824,1121.05Z" transform="translate(-1299.545 -996.159)"/><path class="j" d="M1524.082,1485.463l-15.615,1.615c-4.727-15.1-31.464-60.577-16.6-78.744,3.65-3.808,11.088-4.149,14.688-1.112,2.044,1.452,2.33,3.978,3.008,6.345C1515.97,1436.6,1519.1,1458.889,1524.082,1485.463Z" transform="translate(-1388.878 -1202.42)"/><path class="s" d="M1336.953,1095.423s-16.649-25.845-30.422-8.2-13.63,70.674-11.809,93.933c.317,4.049,14.686,8.491,17.112,6.364C1320.676,1179.766,1336.953,1095.423,1336.953,1095.423Z" transform="translate(-1248.365 -967.127)"/><path class="s" d="M1270.59,1486.386l-18.677.877c1.675-13.518,1.756-55.247,15.382-75.048,1.119-1.627,1.662-3.436,2.545-4.868,1.91-3.052,18.138,2.427,16.959,5.754C1282.986,1425.552,1281.481,1451.928,1270.59,1486.386Z" transform="translate(-1217.918 -1203.343)"/><path class="o" d="M1186.781,669.145c-8.713-9.153-31.034-.525-29.424,12.817s5.085,21.459-11.2,24.493c-12.965,2.416-22.227,17.692-16.621,35.29,7.172,22.514,19.984,8.783,19.909,21.056s1.188,24.3,17.4,19.537,26.638-22.829,18.926-40.532,7.289-19.609,7.817-29.747C1194.343,697.644,1186.781,669.145,1186.781,669.145Z" transform="translate(-1127.872 -665.349)"/><path class="g" d="M1333.292,828.581s1.089,7.119-3.011,8.129-13.341-5.847-13.341-5.847a23.115,23.115,0,0,0-.785-7.348c-.18-.755-.383-1.521-.6-2.291a110.784,110.784,0,0,0-6.067-15.586l17.371,3.936s2.074,6.37,3.938,11.889c.229.681.457,1.35.676,1.993C1332.226,825.661,1332.892,827.554,1333.292,828.581Z" transform="translate(-1259.711 -767.19)"/><g transform="translate(41.089 57.847)"><path class="t" d="M1332.774,927.558c-1.564-8.758,4.582-24.086-.636-32.277-3.921-6.639-10.049-17.983-15.917-18.053-2.381-.029-4.044-1.288-7.141-.6,0,0,2.584,7.376-1.11,8.346-7.109,1.867-14.133-6.389-14.133-6.389-3.955.323-16.031,6.742-16.042,10.206,2.092,11.465,9.465,24.5,14.729,36.364,1.693,6.215,1.148,11.583,1.154,15.27-.49,3.931-2.482,11.969-2.348,12.776,0,0,30.2,5.086,45.539-7.317C1336.871,945.879,1333.832,933.475,1332.774,927.558Z" transform="translate(-1277.795 -876.42)"/></g><path class="u" d="M1391.95,876.771s14.175,9.33,18.547,23.274,6.282,48.058,6.282,48.058l4.74-3.33s-1.413-34.43-5.219-49.774c-11.437-17.456-15.545-18.377-15.545-18.377Z" transform="translate(-1319.575 -818.72)"/><g transform="translate(40.531 1.495)"><g transform="translate(7.303 4.523)"><path class="f" d="M1302.991,714.407c2.549,12.808,12.771,21.568,22.83,19.565s16.147-14.008,13.6-26.816-12.771-21.568-22.83-19.565S1300.439,701.6,1302.991,714.407Z" transform="translate(-1302.41 -687.306)"/><path d="M1418.43,773.065a1.784,1.784,0,1,0,.893-2.359A1.783,1.783,0,0,0,1418.43,773.065Z" transform="translate(-1386.518 -747.734)"/><path d="M1369.507,773.306a1.931,1.931,0,1,0,.966-2.554A1.931,1.931,0,0,0,1369.507,773.306Z" transform="translate(-1350.994 -747.758)"/><path class="g" d="M1403.382,785.237a17.839,17.839,0,0,0,2.668,2.738.708.708,0,0,1,.2.95c-.806,1.308-3.05,2.324-4.423,2.846a.189.189,0,0,1-.186-.323,9.154,9.154,0,0,0,2.293-2.474.843.843,0,0,0,.027-.763c-.258-.563-.771-1.71-1.112-2.657A.318.318,0,0,1,1403.382,785.237Z" transform="translate(-1374.391 -758.32)"/><g transform="translate(15.614 19.021)"><path class="v" d="M1360.58,760.111a.965.965,0,0,1-.864-1.666,6.632,6.632,0,0,1,5.343-1.669.965.965,0,0,1-.373,1.894,4.708,4.708,0,0,0-3.7,1.233A.97.97,0,0,1,1360.58,760.111Z" transform="translate(-1359.383 -756.71)"/></g><g transform="translate(32.333 19.529)"><path class="v" d="M1424.359,762.207a.966.966,0,0,1-1.064-.451,2.528,2.528,0,0,0-1.964-1.261.96.96,0,0,1-.943-.981.97.97,0,0,1,.987-.949,4.471,4.471,0,0,1,3.588,2.218.965.965,0,0,1-.347,1.32A.943.943,0,0,1,1424.359,762.207Z" transform="translate(-1420.388 -758.565)"/></g><path class="i" d="M1375.909,821.84a.5.5,0,0,1,.508-.769,35.568,35.568,0,0,0,9.419.578.5.5,0,0,1,.41.825,6.253,6.253,0,0,1-10.337-.634Z" transform="translate(-1355.705 -784.404)"/></g><path class="v" d="M1283.849,706.157c7.6-.721,13.757-10.91,18.151-15.659,5.655-1.8,10.922-8.782,11.507-11.032-2.013-7.561-8.678-10.929-24.179-7.025C1279.782,674.846,1267.282,692.63,1283.849,706.157Z" transform="translate(-1275.762 -670.804)"/><path class="v" d="M1351.27,712.065s15.665-.482,23.617,4.524c6.1-7.578-.719-13.623-8.012-16.289C1361.558,702.051,1351.27,712.065,1351.27,712.065Z" transform="translate(-1330.576 -692.216)"/><g transform="translate(4.581 30.376)"><path class="f" d="M1300.575,783.154c2.349,1.978,2.942,5.14,1.323,7.062s-4.835,1.878-7.184-.1-2.942-5.139-1.323-7.062S1298.223,781.176,1300.575,783.154Z" transform="translate(-1292.478 -781.641)"/><g transform="translate(3.109 2.525)"><path class="g" d="M1307.181,796.214a.668.668,0,0,0,.244-.188,3.036,3.036,0,0,0,.377-3.71,3.235,3.235,0,0,0-3.5-1.352.671.671,0,1,0,.372,1.29,1.916,1.916,0,0,1,2,.8,1.719,1.719,0,0,1-.3,2.122.671.671,0,0,0,.8,1.036Z" transform="translate(-1303.821 -790.854)"/></g></g></g><path class="u" d="M1290.94,888.253s8.625-5.762,12.352-6.327c5.434,7.453,10.439,12.221,14.453,25.083s5.337,32.162,12.857,50.668c-7.285,3.537-25.825,6.744-35.117,2.738,1.986-8.794,3.3-23.48.145-35.732S1290.94,888.253,1290.94,888.253Z" transform="translate(-1246.249 -822.57)"/><path class="q" d="M1321.444,871.567l-4.736,4.737,8.106,9.611,7.3,2.987S1326.712,879.106,1321.444,871.567Z" transform="translate(-1264.955 -815.05)"/><path class="q" d="M1388.92,868.329l6.4,1.894,5.862,6.2.532,5.587-11.963-11.255Z" transform="translate(-1317.376 -812.699)"/></g><g transform="translate(222.452 28.021)"><path class="k" d="M2247.776,1685.41c-7.679,10.6-26.539,4.094-25.915,18.426,28.68-.184,40.6,0,40.6,0a105.121,105.121,0,0,0-1.266-14.163Z" transform="translate(-2144.478 -1398.98)"/><path class="k" d="M2001.715,1685.41c-7.679,10.6-26.54,4.094-25.916,18.426,28.68-.184,40.6,0,40.6,0a105.122,105.122,0,0,0-1.266-14.163Z" transform="translate(-1965.853 -1398.98)"/><path class="f" d="M1943.779,1082.78l3.8-1.261-1.916-8.5-6.109,2.121Z" transform="translate(-1939.55 -954.425)"/><path class="w" d="M2008.231,822.829s10.108,25.994-3.122,23c-8.408-1.9-42.828-19.642-47.363-25.84-2.6-3.554,12.077-14.791,13.117-18.125C1990.269,811.331,2002.492,817.371,2008.231,822.829Z" transform="translate(-1952.535 -757.586)"/><path class="r" d="M2080.222,1154.38l34.563,18.159s-28.193,53.189-44.4,69.658c-2.82,2.867-18.982-1.592-20.144-5.026C2046.005,1224.653,2080.222,1154.38,2080.222,1154.38Z" transform="translate(-2019.643 -1013.487)"/><path class="r" d="M2052.816,1488.448l17.163,3.491c1.541-15.555,6.971-52,3.525-68.5v0q-.338-1.614-.741-3.1a19.047,19.047,0,0,0-5.491-8.179c-5.846-4.883-13.618-3.8-17.145,2.669-.035.059-.068.12-.1.18q-.066.628-.125,1.267c0,.011,0,.022,0,.033-.1,1.09-.169,2.2-.224,3.343v.005C2049.045,1432.862,2052.315,1456.911,2052.816,1488.448Z" transform="translate(-2019.435 -1198.414)"/><path class="n" d="M2188.41,1157.8l41.371-10.017s1.747,67.217-3.3,89.762c-.879,3.924-15.44,8.365-18.243,6.064C2198.024,1235.22,2188.41,1157.8,2188.41,1157.8Z" transform="translate(-2120.207 -1008.696)"/><path class="n" d="M2242.189,1430.981c0,.027.006.057.009.086,3.239,12.18,7.043,31.465,17.139,63.811l17.823,2.024c-.95-14.806-3.642-50.922-10.93-66.841a39.49,39.49,0,0,0-2.545-4.744C2256.071,1413.545,2240.75,1418.67,2242.189,1430.981Z" transform="translate(-2159.177 -1205.35)"/><g transform="translate(50.47 59.274)"><path class="e" d="M2168.86,856.759l-31.913-.19-12.122,2.9c-3.386,17.985,1.969,86.435,1.969,86.435s9.271,13.3,29.8,10.681c16.866-6.1,28.623-1.816,28.623-1.816,4.4-20.7,2.166-45.694-.337-71.206C2183.292,867.369,2176.761,861.337,2168.86,856.759Z" transform="translate(-2123.703 -856.569)"/></g><g transform="translate(51.669)"><path class="g" d="M2193.922,799.3h-.009l-7.632-.514-3.008,17.9s-.543,4.267,7.093,6.046c6.558,1.527,11.306-4.685,11.306-4.685l-.25-18.182Z" transform="translate(-2168.14 -755.346)"/><path class="f" d="M2167.149,687.636c-1.2,13.153-9.065,23.146-19.4,22.2s-17.732-12.37-16.531-25.523,10.547-23.052,20.879-22.109S2168.349,674.483,2167.149,687.636Z" transform="translate(-2130.267 -656.156)"/><path class="g" d="M2165.788,757.97c-1.788,2.54-4.048,5.633-4.048,5.633a4.735,4.735,0,0,0,4.467,3.067c-1.514-.726-2.988-1.852-2.243-3.882S2165.788,757.97,2165.788,757.97Z" transform="translate(-2152.514 -725.719)"/><path class="x" d="M2170.249,661.175c.6-12.51-11.027-16.133-11.027-16.133s2.53-1.008,1.752-4.751a10.019,10.019,0,0,1-6.082,1.671c-14.309-.826-23.183,1.885-21.536,7.412.586,1.967-8.616,3.365-3.958,16.383.817-1.593,1.369-7.471,4.087-8.872s1.265,3.223,7.53,2.255c6.322-.976,10.348-3.781,15.078-1.462,3.793,2.122,9.043,17.107,8.874,18.154C2165.354,673.434,2169.983,666.673,2170.249,661.175Z" transform="translate(-2128.078 -640.292)"/><path class="x" d="M2131.621,755.91s1.506,7.059,3.135,8.9c.21-3.074,7-1.424,9.93-1.288,5.3.246,10.472-4.662,12.537,2.2,8.917.539,8.584-14.8,8.584-14.8,1.833,11.675-1.5,27.3-18.917,27.915C2135.674,779.235,2130.119,766.788,2131.621,755.91Z" transform="translate(-2130.475 -720.604)"/><g transform="translate(1.563 25.239)"><path class="x" d="M2134.657,735.994a.9.9,0,0,0,.788-.422,2.692,2.692,0,0,1,1.705-1.349,3.256,3.256,0,0,1,2.212.562.9.9,0,0,0,1.068-1.453,5.07,5.07,0,0,0-3.6-.884,4.4,4.4,0,0,0-2.908,2.164.9.9,0,0,0,.282,1.243A.917.917,0,0,0,2134.657,735.994Z" transform="translate(-2133.781 -732.382)"/></g><g transform="translate(17.218 24.532)"><path class="x" d="M2197.576,733.543a.9.9,0,0,0,.646-1.491,5.647,5.647,0,0,0-3.987-2.243,4.4,4.4,0,0,0-3.063,1.14.9.9,0,0,0,1.261,1.289,2.588,2.588,0,0,1,1.754-.627,3.983,3.983,0,0,1,2.672,1.62A.9.9,0,0,0,2197.576,733.543Z" transform="translate(-2190.903 -729.805)"/></g><g transform="translate(33.692 28.42)"><path class="f" d="M2252.828,745.944c-2.161,2.231-2.432,5.473-.606,7.241s5.058,1.393,7.218-.838,2.432-5.473.607-7.241S2254.988,743.713,2252.828,745.944Z" transform="translate(-2251.012 -743.991)"/><g transform="translate(2.752 2.575)"><path class="g" d="M2262.409,759.009a.673.673,0,0,1-.266-.164,3.07,3.07,0,0,1-.76-3.694,3.27,3.27,0,0,1,3.377-1.72.679.679,0,0,1-.241,1.337,1.937,1.937,0,0,0-1.933,1.013,1.738,1.738,0,0,0,.519,2.1.679.679,0,0,1-.7,1.124Z" transform="translate(-2261.053 -753.386)"/></g></g><path d="M2192.715,749.882a1.973,1.973,0,1,1,2.743.513A1.973,1.973,0,0,1,2192.715,749.882Z" transform="translate(-2174.75 -717.605)"/><path d="M2145.073,750.524a1.811,1.811,0,1,1,.471-2.518A1.811,1.811,0,0,1,2145.073,750.524Z" transform="translate(-2138.358 -717.914)"/><path class="i" d="M2163.079,805.88a.5.5,0,0,1,.427-.816,35.536,35.536,0,0,0,9.429-.383.5.5,0,0,1,.492.779,6.254,6.254,0,0,1-10.348.42Z" transform="translate(-2153.404 -759.623)"/></g></g><g transform="translate(88.582 0.817)"><circle class="l" cx="69.871" cy="69.871" r="69.871" transform="translate(0 98.812) rotate(-45)"/><ellipse class="i" cx="54.11" cy="54.11" rx="54.11" ry="54.11" transform="translate(40.184 147.984) rotate(-84.998)"/><ellipse class="l" cx="40.5" cy="40.5" rx="40.5" ry="40.5" transform="matrix(0.122, -0.993, 0.993, 0.122, 53.677, 134.065)"/><path class="i" d="M1770.024,834.7a25.245,25.245,0,1,1-25.245-25.245A25.245,25.245,0,0,1,1770.024,834.7Z" transform="translate(-1645.963 -735.888)"/><path class="l" d="M1794.045,873.289a10.676,10.676,0,1,1-10.676-10.676A10.676,10.676,0,0,1,1794.045,873.289Z" transform="translate(-1684.553 -774.479)"/></g><g transform="translate(39.011 99.621)"><path class="q" d="M1270.229,911.7c-.653,13.352,19.544,42.529,33.111,48.719,7.582-4.156,8.927-17.68,8.927-17.68s-18.306-20.453-21.322-28.373c-1.216-3.192-5.965-12.648-10.937-12.817C1272.454,901.293,1270.394,908.378,1270.229,911.7Z" transform="translate(-1270.214 -901.542)"/><g transform="translate(41.009 33.182)"><path class="f" d="M1465.194,1057.691s-30.32-1.161-36.271-1.8c-6.229-.67-9.4,9.014-9.051,15.006a126.549,126.549,0,0,0,48.542-6.354A22.858,22.858,0,0,0,1465.194,1057.691Z" transform="translate(-1419.847 -1046.746)"/><g transform="translate(43.757)"><path class="f" d="M1582.948,1040.847a26.885,26.885,0,0,1-3.4-6.673c-.313-.962,1.339-3.226,2.423-4.345-.445-2.876-1.046-4.184.482-5.51a30.457,30.457,0,0,0,3.352,4.04,7.088,7.088,0,0,0,3.179-1.27c3.1-1.89,5.6-5.479,7.138-4.208,1.008.833-3.831,4.711-5.785,6.273,2.86-1.27,5.71-5.189,7.083-4.292,1.659,1.083-3.2,5.227-5.248,6.35,3.429-.61,5.139-4.749,6.21-4.041,1.164.862-.792,4.72-4.481,6.032,3.47-.614,4.7-3.767,5.55-2.867.882.937-1.287,4.356-5.989,6.954C1590.307,1039.032,1582.948,1040.847,1582.948,1040.847Z" transform="translate(-1579.505 -1022.614)"/></g></g><path class="y" d="M1389.031,1041.8c.36-1.032,1.534,1.185,2.787,1.309s2.309-.679,2.378.749,2.132,13.618-4.41,20.073c-1.825.238-8.244.021-11.028-3.568C1382.727,1057.681,1389.031,1041.8,1389.031,1041.8Z" transform="translate(-1349.01 -1003.159)"/></g><g transform="translate(234.339 85.571)"><path class="w" d="M2244.02,859.163c3.287,13.939-17.564,52.172-30.654,61.334-8.8-2.9-11.468-15.746-11.468-15.746s10.7-28.655,12.339-37.587c.66-3.6,3.9-15.465,9.106-16.611C2231.254,848.813,2243.2,855.694,2244.02,859.163Z" transform="translate(-2141.885 -850.276)"/><g transform="translate(0 37.165)"><path class="f" d="M2004.979,1005.02c.794-2.456,3.929-7.54,2.728-9.135-.653-.866-3.125-1.657-4.4-2.7-.847-1.776-.577-2.791-1.12-4.971-.5-2.012-.873-2.49-1.632-2.292l-1.905,4.9c-.58,1.23-.512,1.932-5.931.417-4.142-1.158-7.744-3.515-8.916-1.467-.77,1.344,5.248,3.627,8.064,4.544-3.7-.216-7.53-3.374-8.679-1.808-1.388,1.891,4.853,3.973,7.59,4.364-4.055.753-6.8-2.635-7.693-1.4-.931,1.441,2.4,4.516,7.031,4.433-4.1.765-6.332-1.831-6.9-.479-.587,1.405,5.7,3.957,12.055,4.265A63.163,63.163,0,0,1,2004.979,1005.02Z" transform="translate(-1982.923 -985.883)"/><path class="w" d="M2058.993,1016.68s33.6,7.247,40.316,8.02c7.033.81,10.321,10.075,8.45,16.594-21.471,3.375-36.729-4.92-51.336-13.9C2058.094,1023.872,2058.993,1016.68,2058.993,1016.68Z" transform="translate(-2036.279 -1008.24)"/></g></g><g transform="translate(150.89 30.992)"><path class="z" d="M1687.5,658.5c1.319.235,2.915-1.068,3.421-2.809-.064-.06.011-.127.011-.127.131.119.272.11.48.16a2.868,2.868,0,0,0,2.721-2.069c.32-1.223-.211-2.394-1.4-2.51a2.719,2.719,0,0,0-2.523,1.424,1.686,1.686,0,0,0-.882-.388,3.2,3.2,0,0,0-2.742,1.5l-.621-.152a3.635,3.635,0,0,0-3.246,2.419,1.483,1.483,0,0,0-.882-.388,3.39,3.39,0,0,0-3.246,2.419,2.133,2.133,0,0,0,1.639,3,3.164,3.164,0,0,0,2.96-1.578,1.746,1.746,0,0,0,.948.448,3.2,3.2,0,0,0,2.741-1.5Z" transform="translate(-1678.437 -651.129)"/></g><g transform="translate(201.074 28.097)"><path class="z" d="M1870.613,642.435c1.293-.352,3,.8,3.659,2.492-.06.065.022.126.022.126.12-.13.261-.134.463-.2a2.869,2.869,0,0,1,2.9,1.818,1.828,1.828,0,0,1-1.17,2.625,2.718,2.718,0,0,1-2.64-1.192,1.689,1.689,0,0,1-.844.466,3.2,3.2,0,0,1-2.865-1.249l-.605.206a3.634,3.634,0,0,1-3.449-2.119,1.485,1.485,0,0,1-.844.466,3.391,3.391,0,0,1-3.449-2.119,2.133,2.133,0,0,1,1.364-3.136,3.163,3.163,0,0,1,3.089,1.306,1.748,1.748,0,0,1,.9-.531,3.2,3.2,0,0,1,2.865,1.249Z" transform="translate(-1861.545 -640.567)"/></g><g transform="translate(83.639)"><path class="e" d="M1550.129,650.047l-99.9-93.69.861-.911,99.9,93.689Z" transform="translate(-1445.521 -550.678)"/><path class="u" d="M1453.37,542.816l.913-4.768,12.706,12.01.666,6.258Z" transform="translate(-1447.801 -538.048)"/><path class="u" d="M1437.758,558.769l-4.708,1.18,12.706,12.01,6.284.31Z" transform="translate(-1433.05 -553.09)"/><path class="n" d="M1794.431,877.272l-4.687-11.233-1.37,4.644-.863.911-4.56,1.4Z" transform="translate(-1687.055 -776.148)"/></g></g><path class="aa" d="M1161.895,1325.6a9.337,9.337,0,1,1-9.337-9.337A9.337,9.337,0,0,1,1161.895,1325.6Z" transform="translate(-797.495 -918.589)"/><path class="aa" d="M845.2,1516a5.706,5.706,0,1,1-5.706-5.706A5.706,5.706,0,0,1,845.2,1516Z" transform="translate(-572.867 -1059.442)"/><path class="aa" d="M1739.6,1237.585a5.706,5.706,0,1,1-5.705-5.706A5.705,5.705,0,0,1,1739.6,1237.585Z" transform="translate(-1222.147 -857.333)"/><path class="aa" d="M786.31,516.752a5.706,5.706,0,1,1-5.706-5.706A5.706,5.706,0,0,1,786.31,516.752Z" transform="translate(-530.117 -334.055)"/><path class="aa" d="M2763.632,1184.1a5.706,5.706,0,1,1-5.706-5.706A5.706,5.706,0,0,1,2763.632,1184.1Z" transform="translate(-1965.526 -818.504)"/><g transform="translate(246.048 426.772)"><path class="aa" d="M788.858,1422.44a9.334,9.334,0,1,0,9.332,9.335A9.346,9.346,0,0,0,788.858,1422.44Zm0,14.432a5.1,5.1,0,1,1,5.1-5.1A5.106,5.106,0,0,1,788.858,1436.872Z" transform="translate(-779.523 -1422.44)"/></g><g transform="translate(331.446 110.346)"><path class="aa" d="M1100.455,267.874a9.333,9.333,0,1,0,9.332,9.334A9.345,9.345,0,0,0,1100.455,267.874Zm0,14.432a5.1,5.1,0,1,1,5.1-5.1A5.106,5.106,0,0,1,1100.455,282.306Z" transform="translate(-1091.12 -267.874)"/></g><g transform="translate(597.403 170.985)"><path class="aa" d="M2070.874,489.134a9.333,9.333,0,1,0,9.332,9.335A9.346,9.346,0,0,0,2070.874,489.134Zm0,14.432a5.1,5.1,0,1,1,5.1-5.1A5.106,5.106,0,0,1,2070.874,503.566Z" transform="translate(-2061.539 -489.134)"/></g><g transform="translate(560.736 438.619)"><path class="aa" d="M1937.084,1465.67a9.333,9.333,0,1,0,9.332,9.335A9.345,9.345,0,0,0,1937.084,1465.67Zm0,14.432a5.1,5.1,0,1,1,5.1-5.1A5.106,5.106,0,0,1,1937.084,1480.1Z" transform="translate(-1927.749 -1465.67)"/></g></g></svg>