<svg xmlns="http://www.w3.org/2000/svg" width="904" height="480.789" viewBox="0 0 904 480.789"><defs><style>.a{fill:#ebf3fa;}.b{fill:#d5e5fb;}.c{fill:#b7d3f3;}.d{fill:#d2e3fc;}.e{fill:#c5dcf8;}.f{fill:#ffb27d;}.g{fill:#1c468a;}.h{fill:#163560;}.i{fill:#b5453c;}.j{fill:#ed975d;}.k{fill:#fff;}.l{fill:#ed7d2b;}.m{fill:#f99746;}.n{fill:#f9ddbf;}.o{fill:#ed893e;}.p{fill:#95c0f4;}.q{fill:#78acea;}.r{fill:#2e3552;}.s{fill:#aec3ff;}.t{fill:#a02e2e;}.u{fill:#bc3f3f;}.v{fill:#9db0f4;}.w{fill:#233862;}.x{fill:#2b478b;}.y{fill:#e2915a;}.z{fill:#2a4e96;}.aa{fill:#dceaff;}.ab{fill:#ed985f;}.ac{fill:#2c3a64;}</style></defs><g transform="translate(-165.862 -315.982)"><g transform="translate(165.862 315.982)"><path class="a" d="M341.067,795.458s-123.561-131.313-36.919-253.8c32.33-45.707,114.867-71.373,190.739-50.551,44.815,12.3,112.782,10.485,179.192-97.926,90.565-147.842,466.519-80.618,393.135,178.41-30.911,109.108,84.3,114.075,27.233,224.1Z" transform="translate(-236.598 -315.982)"/><g transform="translate(56.036 109.39)"><g transform="translate(0 45.994)"><path class="b" d="M1047.171,831.628l-269.139,225.16-141.6-120.633c-26.5,23.339-67.436,59.363-108.615,95.512-28.141,24.705-50.924,44.667-69.391,60.822l-128.616-.149c35.667-30.366,179.274-156.561,276.021-241.846l29.582-26.076L778.556,946.363,988.662,770.588Z" transform="translate(-329.806 -770.588)"/></g><path class="b" d="M2157.75,654.328,2285.931,782.9l36.21-146.876Z" transform="translate(-1532.964 -636.024)"/></g><g transform="translate(210.572 295.29)"><g transform="translate(23.645)"><path class="c" d="M877.515,1381.87a237.724,237.724,0,0,0-2.746-29.156c-1.969-11.385-3.741-17.935-3.762-18-.259-1-4.006-5.052-12.336-4.927s-7.54,5.438-7.54,5.438h0a1.728,1.728,0,0,0,.06.472,255,255,0,0,1,7.4,63.8c0,.5-.061,1.372-.025,1.949,0,0,19.3.5,19.309,0C878.543,1398.31,878.215,1389.642,877.515,1381.87Z" transform="translate(-851.111 -1278.556)"/><path class="d" d="M884.09,1399.309c-.006.5-.269.9-.59.9h-.007c-.321-.007-.577-.407-.581-.9H866.369c-.006.5-.269.9-.59.9h-.008c-.327-.007-.586-.42-.582-.924a249.792,249.792,0,0,0-1.373-28.261,222.024,222.024,0,0,0-6.323-35.332,1.754,1.754,0,0,1-.06-.473s-.79-5.312,7.539-5.438,12.078,3.926,12.337,4.928c.015.052,1.019,3.761,2.353,10.429.442,2.209.919,4.742,1.409,7.573a238,238,0,0,1,2.745,29.156C884.517,1389.64,884.763,1396.182,884.09,1399.309Z" transform="translate(-855.259 -1278.554)"/><path class="e" d="M876.579,1525.644h64.859s-1.51-6.112-39.073-5.2C875.783,1521.088,876.579,1525.644,876.579,1525.644Z" transform="translate(-867.873 -1403.99)"/><g transform="translate(3.427 122.603)"><path class="c" d="M861.139,1601.511c7.52-38.07,5.586-61.431,5.577-61.725-.019-.586,1.061-1.118,1.642-1.137s3.184-.173,3.484.328c.393.657,1.908,29.44-9.3,62.533Z" transform="translate(-861.139 -1538.616)"/></g><g transform="translate(52.989 122.603)"><path class="c" d="M1017.137,1601.511c-7.52-38.07-5.586-61.431-5.577-61.725.019-.586-1.061-1.118-1.642-1.137s-3.184-.173-3.484.328c-.393.657-1.908,29.44,9.3,62.533Z" transform="translate(-1006.143 -1538.616)"/></g><g transform="translate(64.993 122.603)"><path class="c" d="M1052.257,1601.511c-7.52-38.07-5.586-61.431-5.577-61.725.019-.586-1.061-1.118-1.642-1.137s-3.184-.173-3.484.328c-.393.657-1.908,29.44,9.3,62.533Z" transform="translate(-1041.262 -1538.616)"/></g><g transform="translate(15.509 122.603)"><path class="c" d="M896.487,1601.511c7.52-38.07,5.586-61.431,5.577-61.725-.019-.586,1.062-1.118,1.642-1.137s3.184-.173,3.484.328c.393.657,1.908,29.44-9.3,62.533Z" transform="translate(-896.487 -1538.616)"/></g><path class="c" d="M938.995,1534.751H874.138a1.332,1.332,0,0,1-1.329-1.329v-.873a1.332,1.332,0,0,1,1.329-1.329H939a1.332,1.332,0,0,1,1.328,1.329v.873A1.334,1.334,0,0,1,938.995,1534.751Z" transform="translate(-865.393 -1411.145)"/><g transform="translate(12.644)"><path class="f" d="M1052.614,1361.188l21.56-4.67,1.27,3.095s-23.789,14.155-26.018,13.462S1052.614,1361.188,1052.614,1361.188Z" transform="translate(-993.932 -1296.156)"/><path class="f" d="M1001.49,1622.353a1.915,1.915,0,0,0-.341,2.049.015.015,0,0,0,.005.01c.494,1.365,2.127,2.891,4.024,4.414.242.2.458.373.646.538.049.043.1.087.145.13s.075.069.112.1c1.768,1.63,1.1,2,4.28,5.312,3.623,3.769,6.117,3.838,6.827,3.494.6-.292-.619-2.292-1.971-4.539-.066-.108-.13-.218-.2-.328-.18-.3-.359-.6-.537-.9-1.584-2.7-1.177-3.974-.8-8,.305-3.27,5.088-18.271,5.088-18.271l-6.943-1.2s-2.091,11.945-4.394,13.785c-1.232.981-2.611.993-3.795,1.719q-.126.076-.246.156A9.246,9.246,0,0,0,1001.49,1622.353Z" transform="translate(-962.41 -1459.817)"/><path class="g" d="M1001.49,1652.21a1.915,1.915,0,0,0-.341,2.049.015.015,0,0,0,.005.01c.605,1.364,2.2,2.882,4.03,4.4.24.2.451.382.639.552.049.043.1.087.145.13s.075.069.112.1c1.768,1.63,1.1,2,4.28,5.312,3.623,3.769,6.117,3.838,6.827,3.494.6-.292-.619-2.292-1.971-4.539a15.435,15.435,0,0,1-6.458-4.759c-2.182-2.784-3.636-6.36-5.122-8.432q-.126.076-.246.156A9.234,9.234,0,0,0,1001.49,1652.21Z" transform="translate(-962.41 -1489.673)"/><path class="f" d="M1155.537,1613.954c.429,2.143,3.483,1.786,6.9.951s2.6.158,7.459-.38,6.329-2.349,6.477-3.071c.133-.641-2.267-.867-4.842-1.163-.324-.036-.649-.077-.974-.116-2.907-.364-5.035-2.24-7.675-3.781-2.5-1.459-6.233-7.4-6.233-7.4l-6.661.528s3.5,5.309,4.848,7.618a8.047,8.047,0,0,1,.654,4.539A8.623,8.623,0,0,0,1155.537,1613.954Z" transform="translate(-1060.474 -1455.752)"/><path class="g" d="M1172.933,1636.664c3.413-.833,2.6.158,7.459-.38s6.329-2.349,6.477-3.071c.133-.641-2.267-.867-4.842-1.163l-.024.05a13.693,13.693,0,0,1-6.956,2.162c-3.3.08-6.786-.864-9.062-.827a8.579,8.579,0,0,0,.051,2.279C1166.463,1637.857,1169.518,1637.5,1172.933,1636.664Z" transform="translate(-1070.973 -1477.511)"/><path class="f" d="M1122.86,1347.635s1.587-3.888,3.333-4.047,7.3-1.032,7.7-.238a5.492,5.492,0,0,1-1.19,4.682c-1.19,1.031-8.57,2.7-8.57,2.7Z" transform="translate(-1042.621 -1287.271)"/><path class="h" d="M1047.534,1497.586l-14.357,38.636a13.142,13.142,0,0,1-4.32-.4,18.61,18.61,0,0,1-4.175-2.033s3.561-37.1,10.091-44.814S1047.534,1497.586,1047.534,1497.586Z" transform="translate(-978 -1381.978)"/><path class="g" d="M910.108,1450.476s41.252-13.949,50.452-10.981,36.823,57.927,36.823,57.927a5.331,5.331,0,0,1-2.325,1.468,21.955,21.955,0,0,1-5.414.555s-24.93-21.368-27.9-27.6-4.155-12.168-7.123-11.575-38.285,14.543-46.3,6.232-5.917-19.106-5.917-19.106Z" transform="translate(-897.357 -1350.499)"/><path class="i" d="M928.277,1181.533a10,10,0,0,0-5.415-1.036,2.534,2.534,0,0,1,1.142-.542,8.4,8.4,0,0,0-3,.781c-12.893-4.968-14.919,14.016-14.648,18.426s.3,9.486-6.134,13.442c-12.663,7.783-1.979,21.369-1.979,21.369.1.059,5.892,9.883,5.892,9.883-.325-3.564,16.119-22.372,24.7-28,2.088-3.074,2.831-8.506,2.886-8.934-.361,4.307-1.1,6.723-1.756,8.083C937.233,1208.316,933,1184.219,928.277,1181.533Z" transform="translate(-892.008 -1179.914)"/><path class="f" d="M970.98,1261.42c.043.019-4.142,2.192-7.291,1.332-2.961-.807-4.9-4.647-4.855-4.656,1.254-.249,1.616-1.973,1.589-9.378l.567.112,9.532,1.887s-.217,3-.223,5.826C970.293,1258.915,970.437,1261.167,970.98,1261.42Z" transform="translate(-934.659 -1225.201)"/><path class="j" d="M974.677,1250.926s-.217,3-.223,5.826c-5.334-.15-8.154-5.016-9.309-7.713Z" transform="translate(-938.813 -1225.412)"/><path class="i" d="M955.431,1208.293s-2.8-4.417-3.467-8.194c-.479-2.7.895-12.691,10.938-11.252a13.645,13.645,0,0,1,5.659,2.14c2.181,1.473,5.328,4.652,1.809,13.374l-.914,2.946Z" transform="translate(-930.083 -1185.701)"/><path class="f" d="M973.651,1221.39s-12.62.208-12.629-7.653-1.643-13.129,6.414-13.594,9.626,2.533,10.268,5.156S976.935,1221.13,973.651,1221.39Z" transform="translate(-936.006 -1193.197)"/><path class="i" d="M965.37,1196.591s-3.456,9.223-8.759,10.587-7.6-.057-7.6-.057a15.017,15.017,0,0,0,4.912-8.872S962.763,1192.2,965.37,1196.591Z" transform="translate(-928.191 -1189.839)"/><path class="i" d="M994.373,1198.962s2.581,2.059,3.21,4.061.912,6.123,2.113,5.983c0,0,2.6-6.269-.322-9.815C996.271,1195.427,994.373,1198.962,994.373,1198.962Z" transform="translate(-958.051 -1191.461)"/><path class="g" d="M901.715,1313.413c-1.244-5.22,2.99-15.348,7.41-23.734,4.011-7.6,8.174-13.765,8.548-13.544,10.578,6.278,11.534,1.059,11.534,1.059h0s9.609,1.275,12.329,5.958c3.375,5.811,7.021,22.047,10.642,25.121-.556,1.7-.318,2.608.272,4.717q.19.678.419,1.289a24.835,24.835,0,0,0,1.818,3.733c-1.841,1.119-5.4,3.246-8.015,1.716-3.993-2.337-7.108-9.451-8.861-12.283l-.019-.032c-3.811,21.572,1.371,26.484-1.252,28.759-2.77,2.4-6.728-1.144-15.433,2.629-5.71,2.477-13.635,6.059-18.969,6.682-2.8.328-4.885-.158-5.566-2.048C894.592,1337.947,904.09,1323.366,901.715,1313.413Z" transform="translate(-893.497 -1243.244)"/><path class="k" d="M990.036,1247.221s.235,1,2.72.845c0,0,2.086-.129,2.022-1.227A6.709,6.709,0,0,0,990.036,1247.221Z" transform="translate(-955.196 -1223.795)"/><path class="h" d="M896.572,1388.28c.68,1.89,2.768,2.376,5.566,2.048,3.692-1.609,19.642-7.788,19.464-11.974-.265-6.2-3.067-6.4-1.088-14.048,1.589-6.144-13.149-17.567-15.5-20.05-4.42,8.385-4.542,8.781-3.3,14C904.091,1368.206,894.593,1382.788,896.572,1388.28Z" transform="translate(-893.498 -1288.084)"/><path class="g" d="M889.375,1321.091a23.373,23.373,0,0,1,7.714-7.128c-.446-1.15,11.9-16.283,11.9-18.628,0-2.374,3.293-19.188,3.293-19.188s-10.285.635-13.846,5.6C893.98,1287.96,884.731,1311.862,889.375,1321.091Z" transform="translate(-888.104 -1243.255)"/><path class="f" d="M899.282,1386.79l20.554,5.363-1.929,3.463s-25.013-.175-26.338-1.7S899.282,1386.79,899.282,1386.79Z" transform="translate(-890.297 -1316.081)"/><path class="h" d="M1017.75,1367.76c1.753,2.833,4.869,9.947,8.861,12.283,2.619,1.53,6.174-.6,8.015-1.716a24.827,24.827,0,0,1-1.818-3.734c-1.469.336-3.262.766-4.418,1.115C1026.141,1376.387,1017.75,1367.76,1017.75,1367.76Z" transform="translate(-973.437 -1303.555)"/><path class="f" d="M970.808,1399.66s6.454-1.827,7.992-1.4,6.8,3.915,6.065,4.862-5.381-.567-7.516-.28-3.787,1.34-5.324,1.113a17.835,17.835,0,0,1-3.145-.832Z" transform="translate(-941.27 -1323.588)"/><path class="f" d="M974.524,1397.434a24.2,24.2,0,0,0,4.056-2.546.252.252,0,0,1,.393.045c.241.38.466,1.113-.642,1.842A5.96,5.96,0,0,1,974.524,1397.434Z" transform="translate(-944.986 -1321.362)"/></g><g transform="translate(41.897 52.355)"><path class="l" d="M1003.8,1424.427H973.689a2.4,2.4,0,0,1,2.4-2.4H1003.8Z" transform="translate(-973.689 -1391.629)"/><path class="l" d="M1039.451,1333.09h46.556l-11.167,32.8h-46.86Z" transform="translate(-1009.423 -1333.09)"/><path class="m" d="M1088.017,1333.1l-11.17,32.792H1029.99l11.471-32.792Z" transform="translate(-1010.747 -1333.097)"/><path class="n" d="M1117.466,1375.811a3.027,3.027,0,0,1-2.792,2.269,1.747,1.747,0,0,1-1.745-2.269,3.027,3.027,0,0,1,2.793-2.269A1.747,1.747,0,0,1,1117.466,1375.811Z" transform="translate(-1065.297 -1359.716)"/><path class="o" d="M1118.495,1333.1l-11.168,32.794h-31.031c20.556-7.016,26.028-28.409,26.946-32.794Z" transform="translate(-1041.224 -1333.097)"/></g></g><g transform="translate(0 85.147)"><g transform="translate(6.792 5.062)"><path class="p" d="M802.663,1539.13a1.2,1.2,0,0,0,1.193-.979l5.848-33.144,8.411-47.667,2.352-13.329-5.991-.171-1.039,7.738-7.3,54.377-4.327,32.231A.845.845,0,0,0,802.663,1539.13Z" transform="translate(-801.804 -1443.84)"/><path class="q" d="M835.837,1451.579a8.593,8.593,0,0,1,4.678,5.762l2.352-13.329-5.991-.171Z" transform="translate(-824.204 -1443.841)"/></g><g transform="translate(138.851 5.062)"><g transform="translate(0)"><path class="p" d="M1205.976,1539.13a1.2,1.2,0,0,1-1.193-.979l-5.847-33.144-8.411-47.667-2.352-13.329,5.991-.171,1.04,7.738,7.3,54.377,4.326,32.231A.843.843,0,0,1,1205.976,1539.13Z" transform="translate(-1188.173 -1443.84)"/></g><path class="q" d="M1195.2,1451.579a8.594,8.594,0,0,0-4.678,5.762l-2.352-13.329,5.991-.171Z" transform="translate(-1188.172 -1443.841)"/></g><path class="q" d="M785.588,1439.5H939a3.665,3.665,0,0,0,3.654-3.654v-3.158a3.665,3.665,0,0,0-3.654-3.654H785.588a3.665,3.665,0,0,0-3.654,3.654v3.158A3.665,3.665,0,0,0,785.588,1439.5Z" transform="translate(-781.934 -1429.029)"/></g></g><path class="r" d="M1068.838,1717.083H166.886a1.027,1.027,0,0,1-1.024-1.024v-.349a1.027,1.027,0,0,1,1.024-1.024h901.951a1.027,1.027,0,0,1,1.024,1.024v.349A1.026,1.026,0,0,1,1068.838,1717.083Z" transform="translate(-165.862 -1236.612)"/><g transform="translate(572.062 278.784)"><path class="f" d="M1901.738,1412.71s-3.98,4.937-2.736,5.61,4.532,1.932,5.307,1.138,1.018-6.611,1.018-6.611Z" transform="translate(-1878.523 -1316.635)"/><path class="f" d="M1900.179,1412.95a5.846,5.846,0,0,0-2.267,1.411c-.64.846-2.056,2.137-1.709,2.495s2.379-1.223,2.379-1.223Z" transform="translate(-1876.804 -1316.793)"/><path class="s" d="M1922.369,1219.88s-4.486,41.757-4.885,42.947c-.087.258-.438,1.58-.934,3.482-.706,2.716-1.7,6.619-2.65,10.329-1.427,5.607-2.737,10.78-2.737,10.78l-3.894-1.283s-.2-20.292.8-24.965,4.207-33.383,5.826-37.247S1922.369,1219.88,1922.369,1219.88Z" transform="translate(-1884.111 -1189.714)"/><g transform="translate(0 100.038)"><path class="t" d="M1868.48,1457.4l-24.464-6.416a6,6,0,0,1-4.271-7.307l2.781-10.6a6,6,0,0,1,7.307-4.271l24.464,6.416a6,6,0,0,1,4.27,7.307l-2.78,10.6A6,6,0,0,1,1868.48,1457.4Z" transform="translate(-1839.55 -1427.136)"/><path class="u" d="M1851.907,1431.081,1849.1,1441.8a6.019,6.019,0,0,0,1.458,5.657,5.915,5.915,0,0,0,1.607,1.21h0a5.85,5.85,0,0,0,1.218.467l24.42,6.4a6.023,6.023,0,0,0,7.333-4.286l2.814-10.725a6.026,6.026,0,0,0-4.288-7.334l-8.408-2.2.6-2.287a1.984,1.984,0,0,0-1.414-2.42l-.922-.242-5.115-1.342-1.271-.333a1.984,1.984,0,0,0-2.42,1.414l-.6,2.288-4.871-1.278c-.193-.05-.385-.09-.577-.121a0,0,0,0,1,0,0h0a6.029,6.029,0,0,0-5.228,1.732h0A5.932,5.932,0,0,0,1851.907,1431.081Zm22.145-.4-8.739-2.291.6-2.288a.741.741,0,0,1,.9-.527l2.194.576,4.026,1.055,1.086.285a.764.764,0,0,1,.2.089.742.742,0,0,1,.324.815Z" transform="translate(-1845.704 -1424.304)"/></g><path class="f" d="M1904.669,1426.7s1.087-1.83.679-2.469-1.873,1.9-1.873,1.9,1-2.176.627-2.535-1.907,2.144-1.907,2.144.955-2.115.62-2.187-1.473,1.779-1.473,1.779.591-1.584.051-1.508-1.71,1.521-1.71,1.521Z" transform="translate(-1879.13 -1323.768)"/><path class="v" d="M1925.4,1318.172c-.706,2.716-1.7,6.619-2.65,10.33a40.14,40.14,0,0,1-1.875-8.19c-.9-6.91,1.869-21.632,1.869-21.632Z" transform="translate(-1892.959 -1241.579)"/><path class="f" d="M2079.664,1407.68s4.337,3.523,4.874,4.624,1.884,5.175,1.813,6.488-3.323-3.006-4.279-3.354,1,1.773.778,2.228-2.254-1.031-3.03-1.517-1.321-3.781-2.478-5.574S2079.664,1407.68,2079.664,1407.68Z" transform="translate(-1995.91 -1313.324)"/><path class="w" d="M1918.09,1693.455h21.623c1.549-1.051-.418-11.323-.418-11.323s-5.9-2.239-6.921,2.314-7.517,6-10.954,6.553C1919.067,1691.384,1918.322,1692.676,1918.09,1693.455Z" transform="translate(-1891.245 -1493.607)"/><path class="w" d="M2011.91,1693.455h21.624c1.549-1.051-.418-11.323-.418-11.323s-5.9-2.239-6.921,2.314-7.517,6-10.954,6.553C2012.891,1691.384,2012.146,1692.676,2011.91,1693.455Z" transform="translate(-1952.998 -1493.607)"/><path class="x" d="M1935.11,1406.494s.972,12.126,2.115,26.7c1.552,19.8,5.74,68.894,5.74,68.894s2.745,2.343,8.826,1.061a192.187,192.187,0,0,0,6.724-36.266c.024-.317.048-.636.072-.955,1.44-19.678,3.679-61.116,3.679-61.116Z" transform="translate(-1902.448 -1311.438)"/><path class="w" d="M1934.14,1397.47s1.3,16.316,2.446,30.893l21.291,33.688c.024-.317.048-.636.072-.955,1.44-19.678,3.679-61.116,3.679-61.116Z" transform="translate(-1901.809 -1306.604)"/><path class="x" d="M1952.29,1383.168s15.442,38.437,20.378,53.007c3.516,10.379,13.433,46.787,13.433,46.787a9.966,9.966,0,0,0,7.937-1.224s3.689-37.2-3.763-47.686c-3.954-5.565-.983-57.845-17.013-58.293S1952.29,1383.168,1952.29,1383.168Z" transform="translate(-1913.756 -1292.302)"/><path class="s" d="M1964.867,1283.051c-6.439,3.632-34.023,3.551-35.3.7-2.854-6.367-3.569-38.719-2.223-48.643,0,0,.7-15.251,2.223-14.578,10.188-4.681,26.68-.43,26.68-.43,4.447,1.31,4.065,11.471,5.306,25.74.159,1.839.337,3.755.535,5.735.877,8.812,2.154,18.934,4.1,29.613C1966.309,1281.892,1965.82,1282.514,1964.867,1283.051Z" transform="translate(-1896.904 -1188.695)"/><path class="f" d="M1969.672,1196.831c-.171,2.728-3.728,2.419-8.007,1.442s-2.728-3.5-2.728-3.5.063-1.938.333-4.26c.1-.844.222-1.743.385-2.614.075-.427.159-.847.255-1.253.559-2.4,8.545-.084,8.488.562C1968.243,1188.953,1969.5,1194.688,1969.672,1196.831Z" transform="translate(-1917.952 -1167.14)"/><path class="w" d="M1963.4,1225.16l-.338-3.77,4.734.9-1.822,3.363Z" transform="translate(-1920.845 -1190.708)"/><path class="v" d="M1954.311,1207.29l-2.829,4.3a6.261,6.261,0,0,0,2.456,4.568l3.869-3.6S1955.306,1211.6,1954.311,1207.29Z" transform="translate(-1913.224 -1181.427)"/><path class="v" d="M1969.99,1213.873a10.125,10.125,0,0,0,2.351,4.2s6.041-1.624,7.481-4.719l-3.146-4.062S1976.522,1212.363,1969.99,1213.873Z" transform="translate(-1925.406 -1182.743)"/><path class="y" d="M1969.616,1192.233a14.825,14.825,0,0,1-9.173,1.95c.1-.844.222-1.743.385-2.614,1.052-.255,1.932-.415,1.932-.415Z" transform="translate(-1919.123 -1170.807)"/><path class="f" d="M1967.256,1157.247c-1.879,5.173-8.737,3.852-11.658,3.022-.823-.233-1.332-.427-1.332-.427-.9-.409-1.182-1.985-1.1-3.974.156-3.938,1.711-9.5,2.6-10.836,1.343-2.015,3.582-4.065,10.235-1.211S1969.666,1150.619,1967.256,1157.247Z" transform="translate(-1914.322 -1138.725)"/><path class="w" d="M1974.076,1147.488c-2.1,1.713-6.611,4.882-6.611,4.882a8.174,8.174,0,0,0,1.116-2.3,2.268,2.268,0,0,0,.083-.779,4.3,4.3,0,0,1,.616-2.389c.275-.446.375-.909.027-1.237-.57-.54-1.544-.044-2.182.393a1.287,1.287,0,0,1-1.406.036l-.008-.005c-1.794-1.123.186-3.1-1.271-4.747s-7.77-1.869-7.518-2.9c-2.154-1.217-.8-5.709-.757-5.946a23.283,23.283,0,0,0,6.952-.691c3.134-.787,6.589,1.226,7.683,2.055a1.757,1.757,0,0,0-.174-.766,1.625,1.625,0,0,1,.466,1.015c.048.048.069.081.054.09a2.083,2.083,0,0,1,.989.228s-.267-.084-.394.075a.187.187,0,0,1-.054.042C1975.88,1137.5,1975.819,1146.062,1974.076,1147.488Z" transform="translate(-1916.004 -1131.622)"/><path class="k" d="M1959.146,1181.5s-.337.651-2.033.111c0,0-1.424-.453-1.189-1.2A4.811,4.811,0,0,1,1959.146,1181.5Z" transform="translate(-1916.13 -1163.726)"/><path class="z" d="M1956.876,1232.42s-3.778,47.744-3.724,51.721,4.186,8.184,4.186,8.184,3.294-3.606,3.937-7.412-1.822-52-1.822-52Z" transform="translate(-1914.323 -1197.968)"/><path class="s" d="M2013.17,1223.51s6.1,1.46,10.921,10.722,8.63,27.943,10.932,32.874,3.88,20.458,3.88,20.458l-3.645,1.789s-8.8-15.914-10.1-21.134c-.7-2.823-11.464-25.427-11.464-25.427Z" transform="translate(-1953.827 -1192.103)"/><path class="v" d="M2022.159,1331.013h-.006c-11.483-1.653-8.193-39.659-7.292-39.81s4.2,6.793,4.2,6.793l.315,1.542c.877,8.812,2.154,18.934,4.095,29.613C2023.6,1329.854,2023.112,1330.476,2022.159,1331.013Z" transform="translate(-1954.196 -1236.657)"/></g><g transform="translate(682.442 192.994)"><g transform="translate(14.095 124.877)"><path class="w" d="M2424.222,1646.609s4.781,4.364,3.848,7.464-5.248,5.167-5.831,8.957-2.915,5.856-5.015,5.856h-10.008s-1.545-2.667,2.186-3.47,5.139-5.257,4.906-9.391a72.86,72.86,0,0,1,.35-9.646l7.93-1.838Z" transform="translate(-2337.456 -1508.314)"/><path class="w" d="M2231.836,1676.209s.858,9.931-1.241,10.964l-26.865-.055s0-3.1,4.315-3.789,11.9-3.215,13.178-8.842S2231.836,1676.209,2231.836,1676.209Z" transform="translate(-2203.73 -1526.628)"/><path class="z" d="M2219.6,1268.555s1.417,17.407,3.083,38.332c2.264,28.424,4.985,63.339,5.255,69.953.465,11.485,2.333,29.857,2.333,29.857s4.429,4.365,13.295,2.525c0,0,7.9-26.226,10.156-53.975.035-.454.07-.913.1-1.371,2.1-28.248,5.363-87.733,5.363-87.733Z" transform="translate(-2214.176 -1259.252)"/><path class="w" d="M2219.6,1268.555s1.417,17.407,3.083,38.332l31.04,48.36c.035-.455.07-.913.1-1.371,2.1-28.248,5.363-87.732,5.363-87.732Z" transform="translate(-2214.176 -1259.251)"/><path class="z" d="M2238.53,1257.348s25.54,63.042,42.333,92.669,22.042,37.894,22.042,37.894,9.621-3.79,10.5-6.373c0,0-6.422-57.2-17.668-71.138-6.355-7.878-11.836-25.357-11.561-33.628.473-14.264-4.882-30.793-4.882-30.793Z" transform="translate(-2226.636 -1245.979)"/></g><path class="f" d="M2168.085,1281.95s-4.769,6.457-5.12,8.181-.763,7.875-.193,9.676,3.544-5.374,4.748-6.2-.752,2.824-.283,3.379,2.766-2.243,3.671-3.2.48-5.734,1.446-8.643S2168.085,1281.95,2168.085,1281.95Z" transform="translate(-2162.49 -1144.779)"/><path class="k" d="M2197.6,1007.42s-6.444,59.988-7.018,61.7c-.125.371-.631,2.271-1.343,5-1.014,3.9-2.447,9.509-3.807,14.839-2.051,8.054-4.266,15.019-4.266,15.019a5.651,5.651,0,0,1-3.32.429,3.508,3.508,0,0,1-2.465-1.5s.236-29.453,1.673-36.165,6.043-47.958,8.37-53.51S2197.6,1007.42,2197.6,1007.42Z" transform="translate(-2170.978 -964.082)"/><path class="aa" d="M2202.912,1148.641c-1.014,3.9-2.447,9.509-3.807,14.839a57.717,57.717,0,0,1-2.694-11.766c-1.295-9.928,2.685-31.078,2.685-31.078Z" transform="translate(-2184.647 -1038.602)"/><path class="k" d="M2259.6,1098.185c-9.25,5.219-48.878,5.1-50.712,1.006-4.1-9.146-5.128-55.624-3.194-69.882,0,0,1-21.909,3.194-20.943,14.636-6.725,38.329-.617,38.329-.617,6.388,1.882,5.84,16.48,7.623,36.978.228,2.642.483,5.4.768,8.24,1.26,12.659,3.1,27.2,5.883,42.541C2261.683,1096.517,2260.979,1097.412,2259.6,1098.185Z" transform="translate(-2190.309 -962.626)"/><path class="f" d="M2266.527,974.315c-.246,3.919-5.357,3.475-11.5,2.072s-3.919-5.024-3.919-5.024.091-2.784.479-6.12c.143-1.213.319-2.5.552-3.755.108-.613.229-1.217.367-1.8.8-3.449,12.276-.121,12.194.807C2264.473,963,2266.284,971.237,2266.527,974.315Z" transform="translate(-2220.559 -931.657)"/><path class="w" d="M2257.505,1015.014l-.485-5.414,6.8,1.282-2.618,4.833Z" transform="translate(-2224.71 -965.517)"/><path class="aa" d="M2244.451,989.333l-4.066,6.182a9,9,0,0,0,3.527,6.563l5.559-5.176S2245.879,995.532,2244.451,989.333Z" transform="translate(-2213.761 -952.177)"/><path class="aa" d="M2266.97,998.8s1.154,4.133,3.378,6.03c0,0,8.679-2.333,10.747-6.78l-4.52-5.835S2276.356,996.63,2266.97,998.8Z" transform="translate(-2231.259 -954.075)"/><path class="y" d="M2266.433,967.7a21.294,21.294,0,0,1-13.178,2.8c.142-1.213.319-2.5.552-3.755,1.511-.367,2.776-.6,2.776-.6Z" transform="translate(-2222.232 -936.921)"/><path class="f" d="M2263.046,917.442c-2.7,7.432-12.553,5.534-16.749,4.341-1.181-.334-1.913-.614-1.913-.614-1.3-.588-1.7-2.851-1.584-5.709.223-5.656,2.458-13.642,3.739-15.567,1.929-2.9,5.146-5.84,14.7-1.74S2266.509,907.921,2263.046,917.442Z" transform="translate(-2215.338 -890.833)"/><path class="u" d="M2272.85,903.419c-3.017,2.46-9.5,7.014-9.5,7.014a11.751,11.751,0,0,0,1.6-3.309,3.284,3.284,0,0,0,.118-1.12,6.176,6.176,0,0,1,.885-3.433c.395-.641.538-1.306.039-1.777-.819-.776-2.217-.063-3.134.564a1.852,1.852,0,0,1-2.021.052l-.011-.008c-2.576-1.614.267-4.459-1.825-6.82s-11.162-2.684-10.8-4.165c-3.1-1.748-1.145-8.2-1.088-8.542a33.45,33.45,0,0,0,9.988-.993c4.5-1.131,9.466,1.761,11.037,2.952a2.527,2.527,0,0,0-.25-1.1,2.334,2.334,0,0,1,.669,1.459c.069.069.1.117.078.13a2.987,2.987,0,0,1,1.42.328s-.384-.121-.565.108a.273.273,0,0,1-.078.06C2275.441,889.076,2275.352,901.374,2272.85,903.419Z" transform="translate(-2217.76 -880.626)"/><path class="k" d="M2251.4,952.286s-.485.936-2.921.16c0,0-2.046-.651-1.707-1.729A6.9,6.9,0,0,1,2251.4,952.286Z" transform="translate(-2217.938 -926.751)"/><path class="z" d="M2248.134,1025.44s-5.427,68.589-5.351,74.3,6.014,11.757,6.014,11.757,4.732-5.179,5.656-10.647-2.618-74.711-2.618-74.711Z" transform="translate(-2215.339 -975.943)"/><path class="aa" d="M2341.913,1167.09h-.009c-16.5-2.374-11.771-56.975-10.476-57.191s6.039,9.759,6.039,9.759l.453,2.214c1.26,12.66,3.095,27.2,5.883,42.541C2343.991,1165.422,2343.286,1166.318,2341.913,1167.09Z" transform="translate(-2272.617 -1031.532)"/><g transform="translate(67.509 141.408)"><path class="t" d="M2410.287,1334.665l-34.886,10.152a8.623,8.623,0,0,1-10.658-5.853l-4.4-15.118a8.623,8.623,0,0,1,5.853-10.658l34.886-10.152a8.624,8.624,0,0,1,10.658,5.853l4.4,15.118A8.623,8.623,0,0,1,2410.287,1334.665Z" transform="translate(-2360.002 -1299.841)"/><path class="u" d="M2373.792,1317l4.451,15.292a8.646,8.646,0,0,0,5.972,5.9,8.488,8.488,0,0,0,2.875.3h.007a8.419,8.419,0,0,0,1.845-.323l34.823-10.135a8.654,8.654,0,0,0,5.875-10.7l-4.449-15.295a8.658,8.658,0,0,0-10.7-5.875l-11.99,3.49-.949-3.263a2.851,2.851,0,0,0-3.529-1.938l-1.315.382-7.294,2.123-1.812.528a2.849,2.849,0,0,0-1.938,3.529l.949,3.263-6.947,2.02c-.276.079-.541.173-.8.277a.007.007,0,0,1-.006,0h0a8.661,8.661,0,0,0-5.165,5.994v0A8.558,8.558,0,0,0,2373.792,1317Zm26.995-16.847-12.461,3.628-.949-3.263a1.065,1.065,0,0,1,.724-1.317l3.129-.91,5.74-1.673,1.549-.449a1.07,1.07,0,0,1,1.319.723Z" transform="translate(-2368.854 -1294.345)"/></g><path class="f" d="M2422.3,1277.832s-1.082,9.046.946,8.916,6.991-1.1,7.33-2.66-3.8-8.825-3.8-8.825Z" transform="translate(-2333.305 -1140.377)"/><path class="f" d="M2419.455,1282.71a8.4,8.4,0,0,0-1.686,3.446c-.134,1.518-.874,4.169-.179,4.34s1.965-3.3,1.965-3.3Z" transform="translate(-2330.205 -1145.279)"/><path class="k" d="M2329.01,1012.64s8.762,2.1,15.689,15.4,12.4,40.144,15.705,47.228,5.824,28.339,5.824,28.339a3.251,3.251,0,0,1-2.3,1.443,10.868,10.868,0,0,1-2.8.182s-13.027-20.866-14.9-28.363c-1.012-4.056-16.469-36.529-16.469-36.529Z" transform="translate(-2272.094 -967.518)"/></g><g transform="translate(93.042 216.79)"><path class="f" d="M638.2,1663.355l-1.313-9.457,5.515-4.607,1.737,12.52Z" transform="translate(-568.936 -1410.359)"/><path class="w" d="M650.777,1692.1H628.294a12.35,12.35,0,0,1,.635-6.026c1.125-2.494,2.876-4.034,3.036-5.945,1.429,1.471,3.187,2.417,6.437,1.98.4.646,2.571,4.1,3.9,5.057C643.773,1688.217,650.325,1687.841,650.777,1692.1Z" transform="translate(-563.197 -1430.655)"/><path class="m" d="M627.424,1293.16c-1.47,11.828-2.673,22.979-3.652,33.371-5.233,55.373-4.206,89.218-4.206,89.218s-.378,1-3.622,1.017a18.593,18.593,0,0,1-3.63-.391S600.6,1380.216,601.5,1359.64a31.542,31.542,0,0,1,.914-6.66c2.811-10.528-10.4-50.789,3.96-65.783S628.1,1287.732,627.424,1293.16Z" transform="translate(-544.361 -1167.846)"/><path class="l" d="M627.424,1293.16c-1.47,11.828-2.672,22.979-3.652,33.371l-22.267,33.108a31.544,31.544,0,0,1,.914-6.66c2.811-10.528-10.4-50.789,3.96-65.783S628.1,1287.732,627.424,1293.16Z" transform="translate(-544.361 -1167.846)"/><path class="f" d="M730.595,962.744s-.542-2.7-1.152-4.765c-.27-.913,1.612-6.906,2.914-7.644s4.695,3.3,3.735,6.4c-.493,1.592-1.3,6.772-1.3,6.772Z" transform="translate(-629.837 -950.248)"/><path class="f" d="M726.814,975.449s-.708-1.567-1.347-1.821-1.324-2.816-1.794-3.832c0,0,.453-.665,1.247.19.484.522,1.563,2.051,1.563,2.051Z" transform="translate(-626.056 -962.953)"/><path class="f" d="M446.021,1002.641c-.138.284-.329.793-.5,1.271q0-.2-.006-.386c-.009-.952-3.563-6.132-5.024-6.456s-3.524,4.528-1.7,7.211c.938,1.378,3.228,6.094,3.228,6.094l3.787-1.956s.218-1.706.756-2.136.442-3.081.594-4.189C447.157,1002.095,446.529,1001.592,446.021,1002.641Z" transform="translate(-438.075 -981.056)"/><path class="f" d="M529.654,1658.177c-.318-3.031-.4-11-.4-11s8.125-2.6,7.826-.814c-1.47,8.767-1.071,13.108-1.071,13.108l-3.286,1.963Z" transform="translate(-498.091 -1408.019)"/><path class="m" d="M570.823,1312.015s-31.388,86.039-37.567,123.36a6.255,6.255,0,0,1-4.1.657,4.586,4.586,0,0,1-3.858-2.473s-5.67-44.731,5.6-60.261c7.743-10.669-3.34-57.527,14.694-61.284S570.823,1312.015,570.823,1312.015Z" transform="translate(-494.546 -1187.265)"/><path class="h" d="M546.246,1040.408v0a.7.7,0,0,0-.026-.112c-.183-.757-.384-1.5-.6-2.243v0a50.433,50.433,0,0,0-2.282-6.318c-.486-1.09-.988-2.1-1.5-3-.079-.139-.155-.268-.229-.4l0,0c-1.213-2.039-2.46-3.448-3.585-3.883a10.76,10.76,0,0,0-5.906-.245,2.718,2.718,0,0,1,1.127-.754,8.979,8.979,0,0,0-3.054,1.3c-14.457-3.233-13.612,17.217-12.627,21.852s-3.674,6.887-10.238,11.63c-12.527,9.05-12.317,18.642-12.317,18.642.113.048.236.1.364.167.5-1.241,1.573-3.59,2.694-4.087a48.654,48.654,0,0,0-1.2,4.858c1.908,1.052,4.549,2.68,7.416,4.517l0,0c3.837,2.456,8.072,5.281,11.465,7.576a7.777,7.777,0,0,1-.084-3.017l1.081,3.349.142.437c2.166,1.468,3.874,2.642,4.742,3.243.089.061.168.116.239.163l.389.269c-.288-1.184.975-4.27,3.1-8.16.145-.271.3-.547.457-.827.685-1.229,1.45-2.525,2.273-3.861.3-.483.6-.966.907-1.458,0,0,0,0,0,0,.248-.4.5-.789.761-1.189l0,0c.614-.95,1.251-1.906,1.9-2.864,1.681-2.482,3.46-4.947,5.218-7.207a63.215,63.215,0,0,1,7.156-8.023c.069-.141.134-.286.192-.432a14.291,14.291,0,0,0,.776-2.472c.061-.259.115-.52.163-.78a33.9,33.9,0,0,0,.526-6.131,34.707,34.707,0,0,1-.077,6.18c-.04.333-.084.64-.135.927v0a12.687,12.687,0,0,1-.379,1.626,8.481,8.481,0,0,0,.912-1.4,9.927,9.927,0,0,0,.475-1.05C548.167,1052.894,547.712,1046.451,546.246,1040.408Z" transform="translate(-475.543 -998.424)"/><path class="f" d="M611.169,1110.957c.049.014-4.047,2.979-7.522,2.562-3.268-.39-5.925-4.156-5.883-4.172,1.291-.462,1.4-2.346.206-10.2l.619.029,10.407.5s.243,3.216.682,6.214C610.045,1108.411,610.553,1110.776,611.169,1110.957Z" transform="translate(-543.182 -1048.257)"/><path class="j" d="M610.585,1099.741s.243,3.216.682,6.214c-5.681.682-9.438-4.034-11.089-6.712Z" transform="translate(-544.772 -1048.317)"/><path class="h" d="M586.323,1054.491s-3.661-4.243-4.968-8.142c-.933-2.784-1.054-13.6,9.825-13.657a14.63,14.63,0,0,1,6.339,1.376c2.545,1.218,6.384,4.094,4.028,13.9l-.5,3.269Z" transform="translate(-532.125 -1004.509)"/><path class="k" d="M599.15,1187.685a44.076,44.076,0,0,1-30.545,3.91c-.2-.049-14-2.251-14-2.251.237-.649,2.021-11.309,2.254-11.906,3.016-7.784,8.529-50.031,13.135-52.116,1.176,1.281,4.537,2.158,7.414,1.9,3.313-.292,4.422-1.724,4.147-3.263,3.666,1.733,6.483,3.344,6.483,3.344C591.388,1132.324,599.15,1187.685,599.15,1187.685Z" transform="translate(-514.775 -1064.586)"/><path class="f" d="M606.651,1065.643s-13.351,2.211-14.6-6.124-3.814-13.664,4.658-15.429,10.608,1.168,11.7,3.849S610.092,1064.853,606.651,1065.643Z" transform="translate(-538.526 -1011.662)"/><path class="h" d="M595.828,1039.439s-2.21,10.326-7.618,12.609-8.072,1.139-8.072,1.139a16.1,16.1,0,0,0,3.81-10.184S592.371,1035.2,595.828,1039.439Z" transform="translate(-531.581 -1008.123)"/><path class="h" d="M623.731,1040.8s3.061,1.776,4.044,3.8,1.933,6.349,3.185,6.011c0,0,1.772-7.058-1.89-10.358C625.187,1036.751,623.731,1040.8,623.731,1040.8Z" transform="translate(-560.274 -1008.549)"/><path class="x" d="M671.717,985.923a8.534,8.534,0,0,0-2.387-.738,7.406,7.406,0,0,0-2.1.219s-3.767,23.416-4.047,24.656-16.157,19.126-20.437,19.054c-3.865-.064-8.445,2.919-9.294,3.493,0,0,9,19.035,9.451,22.61.488,3.891,5.148,63.805,5.148,63.805s-.277,2.787,4.931,1.289,6.51-2.738,6.51-2.738-4.784-47.169-5.787-61.838a28.089,28.089,0,0,0-.914-5.473,5.546,5.546,0,0,1,.9-4.713c6.584-9.038,16.982-23.682,17.561-26.794C672.1,1014.183,671.717,985.923,671.717,985.923Z" transform="translate(-566.674 -973.234)"/><path class="w" d="M541.69,1692.1H519.207a12.345,12.345,0,0,1,.635-6.026c1.125-2.494,2.876-4.034,3.036-5.945,1.429,1.471,3.187,2.417,6.437,1.98.4.646,2.571,4.1,3.9,5.057C534.686,1688.217,541.237,1687.841,541.69,1692.1Z" transform="translate(-491.395 -1430.655)"/><path class="x" d="M511.413,1085.394c-.757-4.663-10.432-23.385-10.432-23.385s-6.116-1.829-10.141-.371-24.851-10.3-25.519-11.383-11.822-21.868-11.822-21.868a2.587,2.587,0,0,0-2.407.236,2.713,2.713,0,0,0-1.473,2.256s8.609,26.17,10.9,30.218c1.381,2.442,12.993,10.941,22,17.3a5.65,5.65,0,0,1,2.339,5.371c-1.211,8.949-1.519,13.988-2.911,29.345-1.155,12.739-1.6,37.4-1.6,37.4s10.074,3.486,17.027,3.949,8.468-6.867,8.468-6.867S512.191,1090.189,511.413,1085.394Z" transform="translate(-445.674 -1001.561)"/><path class="k" d="M624.587,1093.782a5.961,5.961,0,0,0,3.537.665c1.312-.2,1.61-1.753,1.61-1.753a5.162,5.162,0,0,0-2.367.005A10.13,10.13,0,0,0,624.587,1093.782Z" transform="translate(-560.838 -1043.923)"/></g><g transform="translate(394.912 67.387)"><path class="f" d="M1866.893,603.632s-6.248-11.1,0-13.36,9.074-.176,9.371,2.353-2.38,12.5-2.38,12.5Z" transform="translate(-1678.57 -563.271)"/><path class="m" d="M1714.608,696.816a201.99,201.99,0,0,1-31.315,3.216,174.627,174.627,0,0,1-24.071-1.083q-2.838-.325-5.457-.726c-18.442-2.8-28.626-7.756-28.626-7.756S1641.99,655.2,1655.6,656.55c15.97,1.592,43.031,15.922,45.721,11.9,3.028-4.528,5.563-43.361,5.563-43.361,7.081-4.849,11.309.262,11.309.262S1732.023,693.675,1714.608,696.816Z" transform="translate(-1521.274 -585.45)"/><path class="l" d="M1772.151,801.637a201.982,201.982,0,0,1-31.316,3.216,174.639,174.639,0,0,1-24.071-1.083c-4.248-13.513-7.3-27.314,1.241-18.993C1733.077,799.453,1772.151,801.637,1772.151,801.637Z" transform="translate(-1578.817 -690.271)"/><path class="w" d="M1620.918,1661.73s-1.212,14.022,1.752,15.481l37.933-.078s0-4.378-6.093-5.35-16.8-4.54-18.608-12.485S1620.918,1661.73,1620.918,1661.73Z" transform="translate(-1518.334 -1265.572)"/><path class="z" d="M1610,1091.075c-.187,9.169-.627,18.627-1.49,27.126-4.1,40.333-5.537,89.064-6.126,98.459-1.02,16.309-4.242,42.365-4.242,42.365s-6.39,6.066-18.847,3.171c0,0-10.321-37.527-12.626-77.042-.036-.648-.072-1.3-.1-1.951-.268-5.224-.548-11.2-.833-17.639-1.9-43.144-3.96-107.236-3.96-107.236l47.6-11.177S1610.464,1068.216,1610,1091.075Z" transform="translate(-1479.563 -864.627)"/><path class="w" d="M1610,1091.076c-12.064,20.814-35.058,59.159-44.269,74.49-1.9-43.145-3.96-107.236-3.96-107.236l47.6-11.177S1610.464,1068.216,1610,1091.076Z" transform="translate(-1479.563 -864.627)"/><path class="f" d="M1331.165,1057.7s-7.746,9.109-8.442,11.635-1.938,11.626-1.273,14.36,5.814-7.624,7.688-8.731-1.406,4.12-.766,4.992,4.339-3.051,5.781-4.378,1.3-8.472,3.031-12.7S1331.165,1057.7,1331.165,1057.7Z" transform="translate(-1321.26 -871.57)"/><path class="w" d="M1334.137,1619.939s-6.751,6.161-5.434,10.539,7.41,7.3,8.234,12.647,4.117,8.269,7.081,8.269h14.131s2.182-3.765-3.087-4.9-7.256-7.422-6.927-13.26a102.85,102.85,0,0,0-.494-13.62l-11.2-2.594Z" transform="translate(-1326.047 -1239.716)"/><path class="z" d="M1459.144,1054.812s-44.56,95.34-68.272,137.173-31.123,53.507-31.123,53.507-13.585-5.351-14.82-9c0,0,9.067-80.76,24.947-100.448,8.973-11.124,19.513-44.508,20.007-56.183s10.9-39.538,10.9-39.538Z" transform="translate(-1336.839 -860.134)"/><path class="m" d="M1564.023,829.542a77.222,77.222,0,0,1-42.8,10.747c-11.006-.481-32.839-3.6-36.363-12.355-.827-2.055-.22-4.663,1.02-8.666,3.221-10.4,10.729-30.218,8.461-74.148a72.105,72.105,0,0,1,.295-11.528c2.362-21.639,14.763-34.453,26.749-38.64,29.231-10.217,38.975,3.938,38.975,3.938s12.921,10.236,14.869,31.6C1579.124,773.221,1564.023,829.542,1564.023,829.542Z" transform="translate(-1428.692 -630.369)"/><path class="f" d="M1617.52,642.758s13.412,8.158,27.96,5.851c0,0,2.876-.732,1.462-4.108a43.14,43.14,0,0,0,1.292-4.5,68.042,68.042,0,0,0,1.666-7.349l-8.255-8.677-7.819-8.292C1631.664,635.5,1617.52,642.758,1617.52,642.758Z" transform="translate(-1516.259 -580.63)"/><path class="ab" d="M1661.56,637.669s4.493,12.008,15.661,16.8c1.276-4.66,2.106-9.535,2.106-9.535l-8.7-6.491Z" transform="translate(-1545.246 -595.104)"/><path class="f" d="M1682.81,583.492s-25.6,3.2-27.4-12.533-6.312-25.915,9.958-28.624,20.137,2.946,22.034,8.055S1689.423,582.254,1682.81,583.492Z" transform="translate(-1539.908 -531.894)"/><path class="ac" d="M1631.825,521.022c-.221-.273-.746-.507-1.929-.617a4.814,4.814,0,0,1,2.239-.54c.31-1.639,1.3-4.524,4.162-5.126a3.558,3.558,0,0,0-1.821,2.5c3.414-3.251,10.549-5.442,29.991-3.165,25.623,3,16.531,19.134,13.129,20.97s-11.573-3.859-17.79-3.6-7.735,9.17-9.884,10.32-1.24-.992-4.037-2.386-3.245,3.311-2.54,6.407-3.356,6.992-3.356,6.992l-3.79-4.4c-3.79-4.4-6.832-22.566-4.89-26.34C1631.48,521.7,1631.651,521.361,1631.825,521.022Z" transform="translate(-1524.405 -513.137)"/><g transform="translate(139.693 12.654)"><path class="z" d="M1780.03,591.361l-43.463.387-.3-6.538,43.326-3.358Z" transform="translate(-1734.114 -571.019)"/><path class="z" d="M1868.122,584.251l-47.322.684-.54-11.888,47.185-3.656Z" transform="translate(-1789.396 -562.817)"/><path class="w" d="M1975.393,577.824l-39.9.05-.728-16.049,39.741-3.616Z" transform="translate(-1864.76 -555.457)"/><path class="w" d="M2049.016,575.234h0a2.231,2.231,0,0,0,2.128-2.33l-.937-20.616a2.231,2.231,0,0,0-2.33-2.128h0a2.231,2.231,0,0,0-2.128,2.33l.936,20.615A2.232,2.232,0,0,0,2049.016,575.234Z" transform="translate(-1937.813 -550.158)"/><path class="z" d="M1732.279,596.953h0a1.984,1.984,0,0,1-2.072-1.891l-.243-5.349a1.983,1.983,0,0,1,1.891-2.071h0a1.983,1.983,0,0,1,2.072,1.891l.243,5.349A1.983,1.983,0,0,1,1732.279,596.953Z" transform="translate(-1729.962 -574.828)"/></g><path class="l" d="M1488.58,900.722c3.221-10.4,10.729-30.218,8.462-74.148a72.092,72.092,0,0,1,.295-11.529h0c9.62-.827,24.325,9.573,24.325,9.573S1512.608,879.831,1488.58,900.722Z" transform="translate(-1431.391 -711.823)"/><path class="m" d="M1435.615,694.905s-24.666,4.24-37.532,19.946-33.56,37.852-38.453,45.606-18.476,60.531-18.476,60.531.9,1.7,4.643,2.685a8.833,8.833,0,0,0,6.187-.52s18-30.8,24.769-46.185c2.814-6.393,51.481-31.709,69.778-29.086C1453.717,748.911,1435.615,694.905,1435.615,694.905Z" transform="translate(-1334.354 -632.777)"/><path class="f" d="M1863.54,573.016s5.305,3.245,8.479,1.872,2.894-2.63,2.894-2.63S1865.324,569.6,1863.54,573.016Z" transform="translate(-1678.19 -551.401)"/><path class="u" d="M1502.688,742.918s-10.825,68.344-87.63,88.242l-8.366,16.507,14.7,2.487s87.44-25.332,86.262-108.445Z" transform="translate(-1377.491 -663.584)"/><path class="t" d="M1675.814,713.329l-3.545.347v5.132l5.223,5.43,4.966-1.208v-7.122l-3.572-2.579Z" transform="translate(-1552.296 -644.904)"/><path class="l" d="M1620.224,673.566s-3.432.774-11.277,7.294c0,0,7.8,16.562,24.264,18.545,0,0-.266-7.686.924-12.248C1634.135,687.157,1621.089,682.487,1620.224,673.566Z" transform="translate(-1510.616 -618.732)"/><path class="l" d="M1682.64,704.56s8.033,4.264,8.627,10.909c0,0,3.071-4.865,2.18-8.234a27.445,27.445,0,0,0-3.644-7.229S1690.077,704.064,1682.64,704.56Z" transform="translate(-1559.122 -636.135)"/></g></g></g></svg>